<?xml version="1.0" encoding="UTF-8"?>
<svg xmlns="http://www.w3.org/2000/svg" xmlns:xlink="http://www.w3.org/1999/xlink" width="1440pt" height="504pt" viewBox="0 0 1440 504">
<defs>
<g>
<g id="glyph-0-0">
<path d="M 7.390625 -3.6875 L 4.515625 -3.6875 L 4.515625 -6.546875 L 3.546875 -6.546875 L 3.546875 -3.6875 L 0.6875 -3.6875 L 0.6875 -2.71875 L 3.546875 -2.71875 L 3.546875 0.140625 L 4.515625 0.140625 L 4.515625 -2.71875 L 7.390625 -2.71875 Z M 7.390625 -3.6875 "/>
</g>
<g id="glyph-1-0">
<path d="M 0.765625 3.09375 L 1.96875 3.09375 L 1.96875 -0.78125 C 2.59375 -0.015625 3.28125 0.328125 4.25 0.328125 C 6.1875 0.328125 7.4375 -1.21875 7.4375 -3.59375 C 7.4375 -6.09375 6.21875 -7.65625 4.234375 -7.65625 C 3.234375 -7.65625 2.421875 -7.203125 1.859375 -6.328125 L 1.859375 -7.453125 L 0.765625 -7.453125 Z M 4.03125 -6.5625 C 5.34375 -6.5625 6.203125 -5.40625 6.203125 -3.625 C 6.203125 -1.9375 5.328125 -0.78125 4.03125 -0.78125 C 2.765625 -0.78125 1.96875 -1.921875 1.96875 -3.671875 C 1.96875 -5.421875 2.765625 -6.5625 4.03125 -6.5625 Z M 4.03125 -6.5625 "/>
</g>
<g id="glyph-1-1">
</g>
<g id="glyph-1-2">
<path d="M 7.59375 -5.015625 L 0.71875 -5.015625 L 0.71875 -4.03125 L 7.59375 -4.03125 Z M 7.59375 -2.578125 L 0.71875 -2.578125 L 0.71875 -1.578125 L 7.59375 -1.578125 Z M 7.59375 -2.578125 "/>
</g>
<g id="glyph-1-3">
<path d="M 3.90625 -10.28125 C 2.96875 -10.28125 2.125 -9.859375 1.59375 -9.15625 C 0.9375 -8.25 0.609375 -6.875 0.609375 -4.984375 C 0.609375 -1.5 1.75 0.328125 3.90625 0.328125 C 6.046875 0.328125 7.203125 -1.5 7.203125 -4.890625 C 7.203125 -6.875 6.890625 -8.21875 6.234375 -9.15625 C 5.703125 -9.875 4.859375 -10.28125 3.90625 -10.28125 Z M 3.90625 -9.171875 C 5.265625 -9.171875 5.921875 -7.796875 5.921875 -5 C 5.921875 -2.078125 5.28125 -0.71875 3.875 -0.71875 C 2.5625 -0.71875 1.890625 -2.140625 1.890625 -4.96875 C 1.890625 -7.796875 2.5625 -9.171875 3.90625 -9.171875 Z M 3.90625 -9.171875 "/>
</g>
<g id="glyph-1-4">
<path d="M 2.71875 -1.484375 L 1.234375 -1.484375 L 1.234375 0 L 2.71875 0 Z M 2.71875 -1.484375 "/>
</g>
<g id="glyph-1-5">
<path d="M 3.140625 -4.734375 L 3.828125 -4.734375 C 5.1875 -4.734375 5.921875 -4.09375 5.921875 -2.859375 C 5.921875 -1.5625 5.140625 -0.78125 3.84375 -0.78125 C 2.453125 -0.78125 1.796875 -1.484375 1.703125 -2.984375 L 0.453125 -2.984375 C 0.515625 -2.15625 0.65625 -1.625 0.890625 -1.171875 C 1.421875 -0.171875 2.40625 0.328125 3.78125 0.328125 C 5.859375 0.328125 7.1875 -0.921875 7.1875 -2.875 C 7.1875 -4.1875 6.703125 -4.890625 5.484375 -5.3125 C 6.421875 -5.703125 6.890625 -6.40625 6.890625 -7.453125 C 6.890625 -9.21875 5.75 -10.28125 3.828125 -10.28125 C 1.796875 -10.28125 0.71875 -9.140625 0.671875 -6.96875 L 1.921875 -6.96875 C 1.9375 -7.59375 1.984375 -7.953125 2.140625 -8.265625 C 2.4375 -8.84375 3.0625 -9.1875 3.84375 -9.1875 C 4.953125 -9.1875 5.609375 -8.515625 5.609375 -7.40625 C 5.609375 -6.6875 5.359375 -6.234375 4.8125 -6 C 4.46875 -5.859375 4.015625 -5.796875 3.140625 -5.78125 Z M 3.140625 -4.734375 "/>
</g>
<g id="glyph-2-0">
<path d="M 3.296875 -8.671875 C 2.515625 -8.671875 1.78125 -8.3125 1.34375 -7.734375 C 0.796875 -6.953125 0.515625 -5.8125 0.515625 -4.203125 C 0.515625 -1.265625 1.46875 0.28125 3.296875 0.28125 C 5.09375 0.28125 6.078125 -1.265625 6.078125 -4.125 C 6.078125 -5.8125 5.8125 -6.9375 5.25 -7.734375 C 4.8125 -8.328125 4.109375 -8.671875 3.296875 -8.671875 Z M 3.296875 -7.734375 C 4.4375 -7.734375 5 -6.578125 5 -4.21875 C 5 -1.75 4.453125 -0.59375 3.28125 -0.59375 C 2.15625 -0.59375 1.59375 -1.796875 1.59375 -4.1875 C 1.59375 -6.578125 2.15625 -7.734375 3.296875 -7.734375 Z M 3.296875 -7.734375 "/>
</g>
<g id="glyph-2-1">
<path d="M 2.296875 -1.25 L 1.046875 -1.25 L 1.046875 0 L 2.296875 0 Z M 2.296875 -1.25 "/>
</g>
<g id="glyph-2-2">
<path d="M 6.078125 -1.046875 L 1.59375 -1.046875 C 1.703125 -1.765625 2.09375 -2.21875 3.125 -2.859375 L 4.328125 -3.53125 C 5.515625 -4.1875 6.125 -5.078125 6.125 -6.140625 C 6.125 -6.859375 5.84375 -7.53125 5.34375 -8 C 4.84375 -8.453125 4.21875 -8.671875 3.40625 -8.671875 C 2.328125 -8.671875 1.53125 -8.296875 1.0625 -7.546875 C 0.75 -7.09375 0.625 -6.546875 0.59375 -5.671875 L 1.65625 -5.671875 C 1.6875 -6.265625 1.765625 -6.609375 1.90625 -6.90625 C 2.1875 -7.421875 2.734375 -7.75 3.375 -7.75 C 4.328125 -7.75 5.046875 -7.0625 5.046875 -6.125 C 5.046875 -5.421875 4.65625 -4.828125 3.90625 -4.390625 L 2.796875 -3.75 C 1.015625 -2.71875 0.5 -1.90625 0.40625 -0.015625 L 6.078125 -0.015625 Z M 6.078125 -1.046875 "/>
</g>
<g id="glyph-2-3">
<path d="M 5.71875 -8.515625 L 1.3125 -8.515625 L 0.6875 -3.875 L 1.65625 -3.875 C 2.140625 -4.46875 2.5625 -4.671875 3.234375 -4.671875 C 4.375 -4.671875 5.078125 -3.890625 5.078125 -2.625 C 5.078125 -1.40625 4.375 -0.65625 3.21875 -0.65625 C 2.296875 -0.65625 1.734375 -1.125 1.46875 -2.09375 L 0.421875 -2.09375 C 0.5625 -1.390625 0.6875 -1.0625 0.9375 -0.75 C 1.421875 -0.09375 2.28125 0.28125 3.234375 0.28125 C 4.953125 0.28125 6.15625 -0.96875 6.15625 -2.765625 C 6.15625 -4.453125 5.046875 -5.609375 3.40625 -5.609375 C 2.8125 -5.609375 2.328125 -5.453125 1.84375 -5.09375 L 2.171875 -7.46875 L 5.71875 -7.46875 Z M 5.71875 -8.515625 "/>
</g>
<g id="glyph-2-4">
<path d="M 6.234375 -8.515625 L 0.546875 -8.515625 L 0.546875 -7.46875 L 5.140625 -7.46875 C 3.125 -4.578125 2.296875 -2.796875 1.65625 0 L 2.78125 0 C 3.25 -2.71875 4.3125 -5.0625 6.234375 -7.625 Z M 6.234375 -8.515625 "/>
</g>
<g id="glyph-2-5">
<path d="M 3.109375 -6.1875 L 3.109375 0 L 4.15625 0 L 4.15625 -8.671875 L 3.46875 -8.671875 C 3.09375 -7.34375 2.859375 -7.15625 1.21875 -6.953125 L 1.21875 -6.1875 Z M 3.109375 -6.1875 "/>
</g>
<g id="glyph-2-6">
<path d="M 2.65625 -4 L 3.234375 -4 C 4.375 -4 4.984375 -3.453125 4.984375 -2.40625 C 4.984375 -1.3125 4.328125 -0.65625 3.234375 -0.65625 C 2.078125 -0.65625 1.515625 -1.25 1.4375 -2.515625 L 0.390625 -2.515625 C 0.4375 -1.828125 0.546875 -1.375 0.75 -0.984375 C 1.203125 -0.140625 2.03125 0.28125 3.1875 0.28125 C 4.9375 0.28125 6.078125 -0.78125 6.078125 -2.421875 C 6.078125 -3.53125 5.65625 -4.125 4.625 -4.484375 C 5.421875 -4.8125 5.8125 -5.40625 5.8125 -6.28125 C 5.8125 -7.78125 4.84375 -8.671875 3.234375 -8.671875 C 1.515625 -8.671875 0.59375 -7.71875 0.5625 -5.875 L 1.625 -5.875 C 1.625 -6.40625 1.6875 -6.703125 1.8125 -6.96875 C 2.046875 -7.46875 2.578125 -7.75 3.234375 -7.75 C 4.171875 -7.75 4.734375 -7.1875 4.734375 -6.25 C 4.734375 -5.640625 4.53125 -5.265625 4.0625 -5.0625 C 3.765625 -4.9375 3.390625 -4.890625 2.65625 -4.890625 Z M 2.65625 -4 "/>
</g>
<g id="glyph-2-7">
<path d="M 5.65625 -4.171875 C 5.609375 -4.78125 5.46875 -5.1875 5.234375 -5.53125 C 4.796875 -6.125 4.046875 -6.46875 3.171875 -6.46875 C 1.46875 -6.46875 0.375 -5.125 0.375 -3.03125 C 0.375 -1.015625 1.453125 0.28125 3.15625 0.28125 C 4.65625 0.28125 5.609375 -0.625 5.71875 -2.15625 L 4.71875 -2.15625 C 4.546875 -1.15625 4.03125 -0.640625 3.1875 -0.640625 C 2.078125 -0.640625 1.421875 -1.546875 1.421875 -3.03125 C 1.421875 -4.609375 2.0625 -5.546875 3.15625 -5.546875 C 4 -5.546875 4.53125 -5.046875 4.640625 -4.171875 Z M 5.65625 -4.171875 "/>
</g>
<g id="glyph-2-8">
<path d="M 1.828125 -8.75 L 0.8125 -8.75 L 0.8125 0 L 1.828125 0 Z M 1.828125 -8.75 "/>
</g>
<g id="glyph-2-9">
<path d="M 5.78125 0 L 5.78125 -6.28125 L 4.78125 -6.28125 L 4.78125 -2.71875 C 4.78125 -1.4375 4.109375 -0.59375 3.078125 -0.59375 C 2.28125 -0.59375 1.78125 -1.078125 1.78125 -1.84375 L 1.78125 -6.28125 L 0.78125 -6.28125 L 0.78125 -1.4375 C 0.78125 -0.390625 1.5625 0.28125 2.78125 0.28125 C 3.703125 0.28125 4.296875 -0.046875 4.890625 -0.875 L 4.890625 0 Z M 5.78125 0 "/>
</g>
<g id="glyph-2-10">
<path d="M 5.25 -4.53125 C 5.25 -5.765625 4.421875 -6.46875 2.96875 -6.46875 C 1.515625 -6.46875 0.5625 -5.71875 0.5625 -4.546875 C 0.5625 -3.5625 1.0625 -3.09375 2.5625 -2.734375 L 3.484375 -2.515625 C 4.1875 -2.34375 4.46875 -2.09375 4.46875 -1.640625 C 4.46875 -1.046875 3.875 -0.640625 3 -0.640625 C 2.453125 -0.640625 2 -0.796875 1.75 -1.0625 C 1.59375 -1.25 1.53125 -1.421875 1.46875 -1.875 L 0.40625 -1.875 C 0.453125 -0.421875 1.265625 0.28125 2.921875 0.28125 C 4.5 0.28125 5.515625 -0.5 5.515625 -1.71875 C 5.515625 -2.65625 4.984375 -3.171875 3.734375 -3.46875 L 2.765625 -3.703125 C 1.953125 -3.890625 1.609375 -4.15625 1.609375 -4.59375 C 1.609375 -5.1875 2.125 -5.546875 2.9375 -5.546875 C 3.75 -5.546875 4.171875 -5.203125 4.203125 -4.53125 Z M 5.25 -4.53125 "/>
</g>
<g id="glyph-2-11">
<path d="M 3.046875 -6.28125 L 2.015625 -6.28125 L 2.015625 -8.015625 L 1.015625 -8.015625 L 1.015625 -6.28125 L 0.171875 -6.28125 L 0.171875 -5.46875 L 1.015625 -5.46875 L 1.015625 -0.71875 C 1.015625 -0.078125 1.453125 0.28125 2.234375 0.28125 C 2.5 0.28125 2.71875 0.25 3.046875 0.1875 L 3.046875 -0.640625 C 2.90625 -0.609375 2.765625 -0.59375 2.5625 -0.59375 C 2.140625 -0.59375 2.015625 -0.71875 2.015625 -1.15625 L 2.015625 -5.46875 L 3.046875 -5.46875 Z M 3.046875 -6.28125 "/>
</g>
<g id="glyph-2-12">
<path d="M 6.15625 -2.8125 C 6.15625 -3.765625 6.078125 -4.34375 5.90625 -4.8125 C 5.5 -5.84375 4.53125 -6.46875 3.359375 -6.46875 C 1.609375 -6.46875 0.484375 -5.140625 0.484375 -3.0625 C 0.484375 -0.984375 1.5625 0.28125 3.34375 0.28125 C 4.78125 0.28125 5.765625 -0.546875 6.03125 -1.90625 L 5.015625 -1.90625 C 4.734375 -1.078125 4.171875 -0.640625 3.375 -0.640625 C 2.734375 -0.640625 2.203125 -0.9375 1.859375 -1.46875 C 1.625 -1.828125 1.53125 -2.1875 1.53125 -2.8125 Z M 1.546875 -3.625 C 1.625 -4.78125 2.34375 -5.546875 3.34375 -5.546875 C 4.375 -5.546875 5.078125 -4.75 5.078125 -3.625 Z M 1.546875 -3.625 "/>
</g>
<g id="glyph-2-13">
<path d="M 0.828125 -6.28125 L 0.828125 0 L 1.84375 0 L 1.84375 -3.265625 C 1.84375 -4.78125 2.46875 -5.453125 3.859375 -5.40625 L 3.859375 -6.4375 C 3.6875 -6.453125 3.59375 -6.46875 3.46875 -6.46875 C 2.8125 -6.46875 2.328125 -6.078125 1.75 -5.140625 L 1.75 -6.28125 Z M 0.828125 -6.28125 "/>
</g>
<g id="glyph-2-14">
<path d="M 6.9375 1.515625 L -0.265625 1.515625 L -0.265625 2.109375 L 6.9375 2.109375 Z M 6.9375 1.515625 "/>
</g>
<g id="glyph-2-15">
<path d="M 1.6875 -8.75 L 0.703125 -8.75 L 0.703125 0 L 1.6875 0 L 1.6875 -2.453125 L 2.65625 -3.40625 L 4.78125 0 L 6.03125 0 L 3.453125 -4.109375 L 5.640625 -6.28125 L 4.359375 -6.28125 L 1.6875 -3.625 Z M 1.6875 -8.75 "/>
</g>
<g id="glyph-2-16">
<path d="M 0.84375 -6.28125 L 0.84375 0 L 1.84375 0 L 1.84375 -3.953125 C 1.84375 -4.859375 2.515625 -5.59375 3.328125 -5.59375 C 4.0625 -5.59375 4.484375 -5.140625 4.484375 -4.328125 L 4.484375 0 L 5.5 0 L 5.5 -3.953125 C 5.5 -4.859375 6.15625 -5.59375 6.96875 -5.59375 C 7.703125 -5.59375 8.140625 -5.125 8.140625 -4.328125 L 8.140625 0 L 9.140625 0 L 9.140625 -4.71875 C 9.140625 -5.84375 8.5 -6.46875 7.3125 -6.46875 C 6.484375 -6.46875 5.96875 -6.21875 5.390625 -5.515625 C 5.015625 -6.1875 4.515625 -6.46875 3.703125 -6.46875 C 2.859375 -6.46875 2.296875 -6.15625 1.765625 -5.40625 L 1.765625 -6.28125 Z M 0.84375 -6.28125 "/>
</g>
<g id="glyph-2-17">
<path d="M 6.421875 -0.59375 C 6.3125 -0.5625 6.265625 -0.5625 6.203125 -0.5625 C 5.859375 -0.5625 5.65625 -0.75 5.65625 -1.0625 L 5.65625 -4.75 C 5.65625 -5.875 4.84375 -6.46875 3.296875 -6.46875 C 2.375 -6.46875 1.640625 -6.203125 1.21875 -5.734375 C 0.921875 -5.40625 0.796875 -5.046875 0.78125 -4.421875 L 1.78125 -4.421875 C 1.875 -5.203125 2.328125 -5.546875 3.265625 -5.546875 C 4.171875 -5.546875 4.671875 -5.203125 4.671875 -4.609375 L 4.671875 -4.34375 C 4.65625 -3.90625 4.4375 -3.75 3.625 -3.640625 C 2.203125 -3.46875 1.984375 -3.421875 1.609375 -3.265625 C 0.875 -2.953125 0.5 -2.40625 0.5 -1.578125 C 0.5 -0.4375 1.296875 0.28125 2.5625 0.28125 C 3.359375 0.28125 4 0 4.703125 -0.640625 C 4.78125 0 5.09375 0.28125 5.734375 0.28125 C 5.953125 0.28125 6.078125 0.25 6.421875 0.171875 Z M 4.671875 -1.984375 C 4.671875 -1.640625 4.578125 -1.4375 4.265625 -1.15625 C 3.859375 -0.796875 3.375 -0.59375 2.78125 -0.59375 C 2 -0.59375 1.546875 -0.96875 1.546875 -1.609375 C 1.546875 -2.265625 1.984375 -2.609375 3.0625 -2.765625 C 4.125 -2.90625 4.328125 -2.953125 4.671875 -3.109375 Z M 4.671875 -1.984375 "/>
</g>
<g id="glyph-2-18">
<path d="M 0.84375 -6.28125 L 0.84375 0 L 1.84375 0 L 1.84375 -3.46875 C 1.84375 -4.75 2.515625 -5.59375 3.546875 -5.59375 C 4.34375 -5.59375 4.84375 -5.109375 4.84375 -4.359375 L 4.84375 0 L 5.84375 0 L 5.84375 -4.75 C 5.84375 -5.796875 5.0625 -6.46875 3.859375 -6.46875 C 2.921875 -6.46875 2.3125 -6.109375 1.765625 -5.234375 L 1.765625 -6.28125 Z M 0.84375 -6.28125 "/>
</g>
<g id="glyph-2-19">
<path d="M 6.40625 -4.234375 L 0.59375 -4.234375 L 0.59375 -3.390625 L 6.40625 -3.390625 Z M 6.40625 -2.171875 L 0.59375 -2.171875 L 0.59375 -1.328125 L 6.40625 -1.328125 Z M 6.40625 -2.171875 "/>
</g>
<g id="glyph-2-20">
<path d="M 3.921875 -2.09375 L 3.921875 0 L 4.984375 0 L 4.984375 -2.09375 L 6.234375 -2.09375 L 6.234375 -3.046875 L 4.984375 -3.046875 L 4.984375 -8.671875 L 4.203125 -8.671875 L 0.34375 -3.21875 L 0.34375 -2.09375 Z M 3.921875 -3.046875 L 1.265625 -3.046875 L 3.921875 -6.875 Z M 3.921875 -3.046875 "/>
</g>
<g id="glyph-3-0">
<path d="M 4.953125 -9.0625 L 8.296875 -9.0625 L 8.296875 -10.203125 L 0.296875 -10.203125 L 0.296875 -9.0625 L 3.65625 -9.0625 L 3.65625 0 L 4.953125 0 Z M 4.953125 -9.0625 "/>
</g>
<g id="glyph-3-1">
<path d="M 2.09375 -7.34375 L 0.9375 -7.34375 L 0.9375 0 L 2.09375 0 Z M 2.09375 -10.203125 L 0.921875 -10.203125 L 0.921875 -8.734375 L 2.09375 -8.734375 Z M 2.09375 -10.203125 "/>
</g>
<g id="glyph-3-2">
<path d="M 0.984375 -7.34375 L 0.984375 0 L 2.15625 0 L 2.15625 -4.609375 C 2.15625 -5.671875 2.921875 -6.53125 3.875 -6.53125 C 4.75 -6.53125 5.234375 -5.984375 5.234375 -5.046875 L 5.234375 0 L 6.40625 0 L 6.40625 -4.609375 C 6.40625 -5.671875 7.1875 -6.53125 8.140625 -6.53125 C 8.984375 -6.53125 9.484375 -5.984375 9.484375 -5.046875 L 9.484375 0 L 10.671875 0 L 10.671875 -5.5 C 10.671875 -6.8125 9.90625 -7.546875 8.546875 -7.546875 C 7.5625 -7.546875 6.96875 -7.25 6.28125 -6.421875 C 5.859375 -7.203125 5.265625 -7.546875 4.3125 -7.546875 C 3.328125 -7.546875 2.671875 -7.1875 2.0625 -6.296875 L 2.0625 -7.34375 Z M 0.984375 -7.34375 "/>
</g>
<g id="glyph-3-3">
<path d="M 7.1875 -3.28125 C 7.1875 -4.390625 7.09375 -5.0625 6.890625 -5.609375 C 6.40625 -6.8125 5.296875 -7.546875 3.921875 -7.546875 C 1.875 -7.546875 0.5625 -5.984375 0.5625 -3.5625 C 0.5625 -1.140625 1.8125 0.328125 3.890625 0.328125 C 5.578125 0.328125 6.734375 -0.625 7.03125 -2.21875 L 5.859375 -2.21875 C 5.53125 -1.265625 4.875 -0.75 3.9375 -0.75 C 3.1875 -0.75 2.5625 -1.09375 2.171875 -1.703125 C 1.890625 -2.125 1.796875 -2.546875 1.78125 -3.28125 Z M 1.8125 -4.234375 C 1.90625 -5.59375 2.734375 -6.46875 3.90625 -6.46875 C 5.09375 -6.46875 5.921875 -5.546875 5.921875 -4.234375 Z M 1.8125 -4.234375 "/>
</g>
<g id="glyph-4-0">
<path d="M -7.203125 -8.34375 C -7.90625 -8.34375 -8.109375 -8.296875 -8.578125 -8.078125 C -9.765625 -7.515625 -10.375 -6.328125 -10.375 -4.609375 C -10.375 -2.359375 -9.21875 -0.984375 -7.375 -0.984375 C -6.125 -0.984375 -5.34375 -1.640625 -5 -2.984375 L -4.328125 -5.515625 C -3.984375 -6.8125 -3.46875 -7.390625 -2.671875 -7.390625 C -2.125 -7.390625 -1.5625 -7.09375 -1.265625 -6.65625 C -0.96875 -6.265625 -0.828125 -5.609375 -0.828125 -4.78125 C -0.828125 -3.671875 -1.09375 -2.921875 -1.6875 -2.4375 C -2.125 -2.0625 -2.625 -1.890625 -3.25 -1.90625 L -3.25 -0.671875 C -2.3125 -0.6875 -1.6875 -0.875 -1.140625 -1.28125 C -0.171875 -1.96875 0.328125 -3.15625 0.328125 -4.703125 C 0.328125 -5.921875 0.046875 -6.921875 -0.46875 -7.578125 C -1.015625 -8.265625 -1.921875 -8.6875 -2.796875 -8.6875 C -4.0625 -8.6875 -4.984375 -7.90625 -5.359375 -6.53125 L -6.046875 -3.96875 C -6.390625 -2.734375 -6.78125 -2.28125 -7.5625 -2.28125 C -8.59375 -2.28125 -9.28125 -3.1875 -9.28125 -4.5625 C -9.28125 -6.1875 -8.546875 -7.09375 -7.203125 -7.109375 Z M -7.203125 -8.34375 "/>
</g>
<g id="glyph-4-1">
<path d="M 0 -6.75 L -7.34375 -6.75 L -7.34375 -5.59375 L -3.171875 -5.59375 C -1.6875 -5.59375 -0.703125 -4.796875 -0.703125 -3.578125 C -0.703125 -2.65625 -1.265625 -2.078125 -2.140625 -2.078125 L -7.34375 -2.078125 L -7.34375 -0.90625 L -1.6875 -0.90625 C -0.46875 -0.90625 0.328125 -1.8125 0.328125 -3.25 C 0.328125 -4.328125 -0.0625 -5.015625 -1.015625 -5.703125 L 0 -5.703125 Z M 0 -6.75 "/>
</g>
<g id="glyph-4-2">
<path d="M -7.34375 -0.96875 L 0 -0.96875 L 0 -2.140625 L -3.8125 -2.140625 C -5.578125 -2.15625 -6.359375 -2.890625 -6.3125 -4.5 L -7.5 -4.5 C -7.53125 -4.296875 -7.546875 -4.1875 -7.546875 -4.046875 C -7.546875 -3.296875 -7.09375 -2.71875 -6 -2.046875 L -7.34375 -2.046875 Z M -7.34375 -0.96875 "/>
</g>
<g id="glyph-4-3">
<path d="M 0 -3.984375 L -7.34375 -6.796875 L -7.34375 -5.484375 L -1.390625 -3.421875 L -7.34375 -1.453125 L -7.34375 -0.140625 L 0 -2.71875 Z M 0 -3.984375 "/>
</g>
<g id="glyph-4-4">
<path d="M -7.34375 -2.09375 L -7.34375 -0.9375 L 0 -0.9375 L 0 -2.09375 Z M -10.203125 -2.09375 L -10.203125 -0.921875 L -8.734375 -0.921875 L -8.734375 -2.09375 Z M -10.203125 -2.09375 "/>
</g>
<g id="glyph-4-5">
<path d="M -0.6875 -7.484375 C -0.65625 -7.359375 -0.65625 -7.3125 -0.65625 -7.234375 C -0.65625 -6.828125 -0.875 -6.609375 -1.234375 -6.609375 L -5.546875 -6.609375 C -6.84375 -6.609375 -7.546875 -5.65625 -7.546875 -3.84375 C -7.546875 -2.765625 -7.234375 -1.921875 -6.6875 -1.40625 C -6.3125 -1.078125 -5.890625 -0.9375 -5.171875 -0.90625 L -5.171875 -2.09375 C -6.0625 -2.1875 -6.46875 -2.71875 -6.46875 -3.8125 C -6.46875 -4.875 -6.078125 -5.453125 -5.375 -5.453125 L -5.0625 -5.453125 C -4.5625 -5.4375 -4.375 -5.1875 -4.25 -4.234375 C -4.046875 -2.578125 -3.984375 -2.328125 -3.8125 -1.875 C -3.4375 -1.015625 -2.796875 -0.59375 -1.84375 -0.59375 C -0.515625 -0.59375 0.328125 -1.515625 0.328125 -3 C 0.328125 -3.921875 0 -4.65625 -0.75 -5.484375 C 0 -5.578125 0.328125 -5.9375 0.328125 -6.6875 C 0.328125 -6.9375 0.296875 -7.09375 0.203125 -7.484375 Z M -2.3125 -5.453125 C -1.921875 -5.453125 -1.6875 -5.328125 -1.359375 -4.984375 C -0.921875 -4.515625 -0.703125 -3.9375 -0.703125 -3.25 C -0.703125 -2.34375 -1.140625 -1.8125 -1.875 -1.8125 C -2.640625 -1.8125 -3.03125 -2.3125 -3.21875 -3.5625 C -3.390625 -4.8125 -3.4375 -5.046875 -3.625 -5.453125 Z M -2.3125 -5.453125 "/>
</g>
<g id="glyph-4-6">
<path d="M -10.203125 -2.125 L -10.203125 -0.953125 L 0 -0.953125 L 0 -2.125 Z M -10.203125 -2.125 "/>
</g>
<g id="glyph-4-7">
</g>
<g id="glyph-4-8">
<path d="M 3.046875 -0.75 L 3.046875 -1.9375 L -0.765625 -1.9375 C -0.015625 -2.546875 0.328125 -3.234375 0.328125 -4.1875 C 0.328125 -6.09375 -1.203125 -7.328125 -3.546875 -7.328125 C -6 -7.328125 -7.546875 -6.125 -7.546875 -4.171875 C -7.546875 -3.171875 -7.09375 -2.375 -6.234375 -1.828125 L -7.34375 -1.828125 L -7.34375 -0.75 Z M -6.453125 -3.96875 C -6.453125 -5.265625 -5.3125 -6.109375 -3.5625 -6.109375 C -1.90625 -6.109375 -0.765625 -5.25 -0.765625 -3.96875 C -0.765625 -2.734375 -1.890625 -1.9375 -3.609375 -1.9375 C -5.328125 -1.9375 -6.453125 -2.734375 -6.453125 -3.96875 Z M -6.453125 -3.96875 "/>
</g>
<g id="glyph-4-9">
<path d="M -7.546875 -3.8125 C -7.546875 -1.734375 -6.078125 -0.5 -3.609375 -0.5 C -1.140625 -0.5 0.328125 -1.734375 0.328125 -3.828125 C 0.328125 -5.890625 -1.140625 -7.140625 -3.5625 -7.140625 C -6.109375 -7.140625 -7.546875 -5.9375 -7.546875 -3.8125 Z M -6.46875 -3.828125 C -6.46875 -5.140625 -5.390625 -5.921875 -3.5625 -5.921875 C -1.828125 -5.921875 -0.75 -5.109375 -0.75 -3.828125 C -0.75 -2.515625 -1.828125 -1.71875 -3.609375 -1.71875 C -5.390625 -1.71875 -6.46875 -2.515625 -6.46875 -3.828125 Z M -6.46875 -3.828125 "/>
</g>
<g id="glyph-4-10">
<path d="M -10.203125 -0.75 L 0 -0.75 L 0 -1.8125 L -0.9375 -1.8125 C -0.078125 -2.359375 0.328125 -3.109375 0.328125 -4.125 C 0.328125 -6.0625 -1.265625 -7.328125 -3.703125 -7.328125 C -6.078125 -7.328125 -7.546875 -6.125 -7.546875 -4.1875 C -7.546875 -3.171875 -7.171875 -2.46875 -6.34375 -1.921875 L -10.203125 -1.921875 Z M -6.453125 -3.96875 C -6.453125 -5.265625 -5.3125 -6.109375 -3.5625 -6.109375 C -1.90625 -6.109375 -0.765625 -5.234375 -0.765625 -3.96875 C -0.765625 -2.71875 -1.890625 -1.921875 -3.609375 -1.921875 C -5.328125 -1.921875 -6.453125 -2.71875 -6.453125 -3.96875 Z M -6.453125 -3.96875 "/>
</g>
<g id="glyph-4-11">
<path d="M -7.34375 -3.5625 L -7.34375 -2.359375 L -9.359375 -2.359375 L -9.359375 -1.1875 L -7.34375 -1.1875 L -7.34375 -0.203125 L -6.390625 -0.203125 L -6.390625 -1.1875 L -0.84375 -1.1875 C -0.078125 -1.1875 0.328125 -1.6875 0.328125 -2.609375 C 0.328125 -2.90625 0.296875 -3.15625 0.21875 -3.5625 L -0.75 -3.5625 C -0.71875 -3.390625 -0.703125 -3.234375 -0.703125 -3 C -0.703125 -2.484375 -0.84375 -2.359375 -1.359375 -2.359375 L -6.390625 -2.359375 L -6.390625 -3.5625 Z M -7.34375 -3.5625 "/>
</g>
<g id="glyph-4-12">
<path d="M -7.34375 -5.4375 L -1.625 -3.40625 L -7.34375 -1.53125 L -7.34375 -0.28125 L 0.03125 -2.765625 L 1.1875 -2.3125 C 1.703125 -2.109375 1.90625 -1.859375 1.90625 -1.375 C 1.90625 -1.171875 1.875 -1.015625 1.8125 -0.75 L 2.875 -0.75 C 3 -1 3.046875 -1.234375 3.046875 -1.546875 C 3.046875 -1.921875 2.921875 -2.328125 2.703125 -2.625 C 2.4375 -3 2.125 -3.203125 1.546875 -3.4375 L -7.34375 -6.6875 Z M -7.34375 -5.4375 "/>
</g>
<g id="glyph-5-0">
<path d="M 5.953125 -5.15625 C 5.953125 -5.65625 5.9375 -5.796875 5.765625 -6.125 C 5.375 -6.96875 4.515625 -7.40625 3.296875 -7.40625 C 1.6875 -7.40625 0.703125 -6.59375 0.703125 -5.265625 C 0.703125 -4.375 1.171875 -3.8125 2.125 -3.5625 L 3.9375 -3.09375 C 4.875 -2.84375 5.28125 -2.484375 5.28125 -1.90625 C 5.28125 -1.515625 5.0625 -1.125 4.765625 -0.90625 C 4.46875 -0.6875 4.015625 -0.59375 3.421875 -0.59375 C 2.625 -0.59375 2.09375 -0.78125 1.734375 -1.203125 C 1.46875 -1.515625 1.34375 -1.875 1.359375 -2.3125 L 0.484375 -2.3125 C 0.484375 -1.65625 0.625 -1.203125 0.90625 -0.8125 C 1.40625 -0.125 2.25 0.234375 3.359375 0.234375 C 4.234375 0.234375 4.9375 0.03125 5.40625 -0.328125 C 5.90625 -0.71875 6.203125 -1.375 6.203125 -2 C 6.203125 -2.90625 5.65625 -3.5625 4.65625 -3.828125 L 2.828125 -4.3125 C 1.953125 -4.5625 1.625 -4.84375 1.625 -5.40625 C 1.625 -6.140625 2.28125 -6.625 3.265625 -6.625 C 4.421875 -6.625 5.0625 -6.109375 5.078125 -5.15625 Z M 5.953125 -5.15625 "/>
</g>
<g id="glyph-5-1">
<path d="M 2.546875 -5.234375 L 1.6875 -5.234375 L 1.6875 -6.6875 L 0.84375 -6.6875 L 0.84375 -5.234375 L 0.140625 -5.234375 L 0.140625 -4.5625 L 0.84375 -4.5625 L 0.84375 -0.59375 C 0.84375 -0.0625 1.203125 0.234375 1.859375 0.234375 C 2.078125 0.234375 2.265625 0.203125 2.546875 0.15625 L 2.546875 -0.546875 C 2.421875 -0.515625 2.3125 -0.5 2.140625 -0.5 C 1.78125 -0.5 1.6875 -0.59375 1.6875 -0.96875 L 1.6875 -4.5625 L 2.546875 -4.5625 Z M 2.546875 -5.234375 "/>
</g>
<g id="glyph-5-2">
<path d="M 0.6875 -5.234375 L 0.6875 0 L 1.53125 0 L 1.53125 -2.71875 C 1.546875 -3.984375 2.0625 -4.546875 3.203125 -4.515625 L 3.203125 -5.359375 C 3.0625 -5.375 2.984375 -5.390625 2.890625 -5.390625 C 2.34375 -5.390625 1.9375 -5.0625 1.453125 -4.296875 L 1.453125 -5.234375 Z M 0.6875 -5.234375 "/>
</g>
<g id="glyph-5-3">
<path d="M 5.34375 -0.484375 C 5.265625 -0.46875 5.21875 -0.46875 5.171875 -0.46875 C 4.875 -0.46875 4.71875 -0.625 4.71875 -0.875 L 4.71875 -3.953125 C 4.71875 -4.890625 4.046875 -5.390625 2.75 -5.390625 C 1.984375 -5.390625 1.375 -5.171875 1.015625 -4.78125 C 0.765625 -4.515625 0.671875 -4.203125 0.65625 -3.6875 L 1.484375 -3.6875 C 1.5625 -4.328125 1.9375 -4.625 2.71875 -4.625 C 3.484375 -4.625 3.890625 -4.34375 3.890625 -3.84375 L 3.890625 -3.625 C 3.875 -3.265625 3.703125 -3.125 3.015625 -3.046875 C 1.84375 -2.890625 1.65625 -2.84375 1.34375 -2.71875 C 0.734375 -2.453125 0.421875 -2 0.421875 -1.3125 C 0.421875 -0.375 1.078125 0.234375 2.140625 0.234375 C 2.796875 0.234375 3.328125 0 3.921875 -0.546875 C 3.984375 0 4.234375 0.234375 4.78125 0.234375 C 4.953125 0.234375 5.0625 0.203125 5.34375 0.140625 Z M 3.890625 -1.65625 C 3.890625 -1.375 3.8125 -1.203125 3.5625 -0.96875 C 3.21875 -0.65625 2.8125 -0.5 2.3125 -0.5 C 1.671875 -0.5 1.296875 -0.8125 1.296875 -1.34375 C 1.296875 -1.890625 1.65625 -2.171875 2.546875 -2.296875 C 3.4375 -2.421875 3.609375 -2.453125 3.890625 -2.59375 Z M 3.890625 -1.65625 "/>
</g>
<g id="glyph-5-4">
<path d="M 4.703125 -3.484375 C 4.671875 -3.984375 4.5625 -4.3125 4.359375 -4.609375 C 4 -5.09375 3.375 -5.390625 2.640625 -5.390625 C 1.21875 -5.390625 0.3125 -4.265625 0.3125 -2.53125 C 0.3125 -0.84375 1.203125 0.234375 2.625 0.234375 C 3.875 0.234375 4.671875 -0.515625 4.765625 -1.796875 L 3.9375 -1.796875 C 3.796875 -0.953125 3.359375 -0.546875 2.65625 -0.546875 C 1.734375 -0.546875 1.1875 -1.296875 1.1875 -2.53125 C 1.1875 -3.84375 1.71875 -4.625 2.625 -4.625 C 3.328125 -4.625 3.765625 -4.203125 3.875 -3.484375 Z M 4.703125 -3.484375 "/>
</g>
<g id="glyph-5-5">
<path d="M 1.515625 -7.296875 L 0.6875 -7.296875 L 0.6875 0 L 1.515625 0 Z M 1.515625 -7.296875 "/>
</g>
<g id="glyph-5-6">
<path d="M 4.8125 0 L 4.8125 -5.234375 L 3.984375 -5.234375 L 3.984375 -2.265625 C 3.984375 -1.203125 3.4375 -0.5 2.5625 -0.5 C 1.90625 -0.5 1.484375 -0.90625 1.484375 -1.53125 L 1.484375 -5.234375 L 0.65625 -5.234375 L 0.65625 -1.203125 C 0.65625 -0.328125 1.296875 0.234375 2.3125 0.234375 C 3.09375 0.234375 3.578125 -0.046875 4.0625 -0.734375 L 4.0625 0 Z M 4.8125 0 "/>
</g>
<g id="glyph-5-7">
<path d="M 4.375 -3.78125 C 4.375 -4.8125 3.6875 -5.390625 2.484375 -5.390625 C 1.265625 -5.390625 0.46875 -4.765625 0.46875 -3.796875 C 0.46875 -2.96875 0.890625 -2.578125 2.125 -2.28125 L 2.90625 -2.09375 C 3.484375 -1.953125 3.71875 -1.734375 3.71875 -1.375 C 3.71875 -0.875 3.234375 -0.546875 2.5 -0.546875 C 2.046875 -0.546875 1.671875 -0.671875 1.453125 -0.890625 C 1.328125 -1.046875 1.265625 -1.1875 1.21875 -1.5625 L 0.34375 -1.5625 C 0.375 -0.34375 1.0625 0.234375 2.4375 0.234375 C 3.75 0.234375 4.59375 -0.421875 4.59375 -1.4375 C 4.59375 -2.203125 4.15625 -2.640625 3.109375 -2.890625 L 2.3125 -3.078125 C 1.625 -3.234375 1.34375 -3.453125 1.34375 -3.828125 C 1.34375 -4.3125 1.765625 -4.625 2.453125 -4.625 C 3.125 -4.625 3.484375 -4.328125 3.5 -3.78125 Z M 4.375 -3.78125 "/>
</g>
<g id="glyph-5-8">
<path d="M 5.125 -2.34375 C 5.125 -3.140625 5.0625 -3.625 4.921875 -4.015625 C 4.578125 -4.875 3.78125 -5.390625 2.796875 -5.390625 C 1.34375 -5.390625 0.40625 -4.28125 0.40625 -2.546875 C 0.40625 -0.8125 1.296875 0.234375 2.78125 0.234375 C 3.984375 0.234375 4.8125 -0.453125 5.015625 -1.59375 L 4.1875 -1.59375 C 3.953125 -0.90625 3.484375 -0.546875 2.8125 -0.546875 C 2.28125 -0.546875 1.828125 -0.78125 1.546875 -1.21875 C 1.34375 -1.515625 1.28125 -1.8125 1.265625 -2.34375 Z M 1.296875 -3.015625 C 1.359375 -3.984375 1.953125 -4.625 2.796875 -4.625 C 3.640625 -4.625 4.234375 -3.953125 4.234375 -3.015625 Z M 1.296875 -3.015625 "/>
</g>
<g id="glyph-5-9">
<path d="M 5.78125 1.265625 L -0.21875 1.265625 L -0.21875 1.765625 L 5.78125 1.765625 Z M 5.78125 1.265625 "/>
</g>
<g id="glyph-5-10">
<path d="M 1.40625 -7.296875 L 0.578125 -7.296875 L 0.578125 0 L 1.40625 0 L 1.40625 -2.046875 L 2.21875 -2.84375 L 3.984375 0 L 5.015625 0 L 2.875 -3.4375 L 4.703125 -5.234375 L 3.625 -5.234375 L 1.40625 -3.015625 Z M 1.40625 -7.296875 "/>
</g>
<g id="glyph-5-11">
<path d="M 0.703125 -5.234375 L 0.703125 0 L 1.546875 0 L 1.546875 -3.296875 C 1.546875 -4.046875 2.09375 -4.65625 2.765625 -4.65625 C 3.390625 -4.65625 3.734375 -4.28125 3.734375 -3.609375 L 3.734375 0 L 4.578125 0 L 4.578125 -3.296875 C 4.578125 -4.046875 5.125 -4.65625 5.8125 -4.65625 C 6.421875 -4.65625 6.78125 -4.265625 6.78125 -3.609375 L 6.78125 0 L 7.625 0 L 7.625 -3.9375 C 7.625 -4.875 7.078125 -5.390625 6.09375 -5.390625 C 5.40625 -5.390625 4.984375 -5.1875 4.484375 -4.59375 C 4.1875 -5.15625 3.765625 -5.390625 3.078125 -5.390625 C 2.375 -5.390625 1.90625 -5.125 1.46875 -4.5 L 1.46875 -5.234375 Z M 0.703125 -5.234375 "/>
</g>
<g id="glyph-5-12">
<path d="M 0.703125 -5.234375 L 0.703125 0 L 1.546875 0 L 1.546875 -2.890625 C 1.546875 -3.953125 2.09375 -4.65625 2.953125 -4.65625 C 3.625 -4.65625 4.046875 -4.265625 4.046875 -3.625 L 4.046875 0 L 4.875 0 L 4.875 -3.953125 C 4.875 -4.828125 4.21875 -5.390625 3.203125 -5.390625 C 2.4375 -5.390625 1.9375 -5.09375 1.46875 -4.359375 L 1.46875 -5.234375 Z M 0.703125 -5.234375 "/>
</g>
<g id="glyph-5-13">
<path d="M 5.34375 -3.53125 L 0.5 -3.53125 L 0.5 -2.828125 L 5.34375 -2.828125 Z M 5.34375 -1.8125 L 0.5 -1.8125 L 0.5 -1.109375 L 5.34375 -1.109375 Z M 5.34375 -1.8125 "/>
</g>
<g id="glyph-5-14">
<path d="M 2.59375 -5.15625 L 2.59375 0 L 3.46875 0 L 3.46875 -7.234375 L 2.890625 -7.234375 C 2.578125 -6.125 2.375 -5.96875 1.015625 -5.796875 L 1.015625 -5.15625 Z M 2.59375 -5.15625 "/>
</g>
<g id="glyph-5-15">
<path d="M 5.0625 -0.875 L 1.328125 -0.875 C 1.421875 -1.46875 1.734375 -1.84375 2.609375 -2.375 L 3.609375 -2.9375 C 4.59375 -3.484375 5.109375 -4.234375 5.109375 -5.125 C 5.109375 -5.71875 4.875 -6.28125 4.453125 -6.671875 C 4.03125 -7.046875 3.515625 -7.234375 2.84375 -7.234375 C 1.9375 -7.234375 1.265625 -6.90625 0.875 -6.296875 C 0.625 -5.90625 0.515625 -5.453125 0.5 -4.734375 L 1.375 -4.734375 C 1.40625 -5.21875 1.46875 -5.515625 1.59375 -5.75 C 1.8125 -6.1875 2.28125 -6.453125 2.8125 -6.453125 C 3.609375 -6.453125 4.203125 -5.875 4.203125 -5.09375 C 4.203125 -4.515625 3.875 -4.015625 3.25 -3.65625 L 2.328125 -3.125 C 0.84375 -2.265625 0.421875 -1.59375 0.34375 -0.015625 L 5.0625 -0.015625 Z M 5.0625 -0.875 "/>
</g>
<g id="glyph-5-16">
<path d="M 2.203125 -3.328125 L 2.6875 -3.328125 C 3.65625 -3.328125 4.15625 -2.875 4.15625 -2.015625 C 4.15625 -1.09375 3.609375 -0.546875 2.703125 -0.546875 C 1.734375 -0.546875 1.265625 -1.046875 1.203125 -2.09375 L 0.3125 -2.09375 C 0.359375 -1.515625 0.453125 -1.140625 0.625 -0.8125 C 1 -0.125 1.6875 0.234375 2.65625 0.234375 C 4.125 0.234375 5.0625 -0.65625 5.0625 -2.015625 C 5.0625 -2.9375 4.703125 -3.4375 3.859375 -3.734375 C 4.515625 -4.015625 4.84375 -4.515625 4.84375 -5.234375 C 4.84375 -6.484375 4.046875 -7.234375 2.6875 -7.234375 C 1.265625 -7.234375 0.5 -6.4375 0.46875 -4.90625 L 1.34375 -4.90625 C 1.359375 -5.34375 1.40625 -5.59375 1.515625 -5.8125 C 1.703125 -6.21875 2.15625 -6.453125 2.703125 -6.453125 C 3.484375 -6.453125 3.953125 -5.984375 3.953125 -5.203125 C 3.953125 -4.703125 3.765625 -4.390625 3.375 -4.21875 C 3.140625 -4.125 2.8125 -4.078125 2.203125 -4.0625 Z M 2.203125 -3.328125 "/>
</g>
<g id="glyph-5-17">
<path d="M 3.265625 -1.75 L 3.265625 0 L 4.15625 0 L 4.15625 -1.75 L 5.203125 -1.75 L 5.203125 -2.546875 L 4.15625 -2.546875 L 4.15625 -7.234375 L 3.5 -7.234375 L 0.28125 -2.6875 L 0.28125 -1.75 Z M 3.265625 -2.546875 L 1.046875 -2.546875 L 3.265625 -5.734375 Z M 3.265625 -2.546875 "/>
</g>
<g id="glyph-6-0">
<path d="M 2.828125 -4.265625 L 3.4375 -4.265625 C 4.671875 -4.265625 5.328125 -3.6875 5.328125 -2.578125 C 5.328125 -1.40625 4.625 -0.703125 3.453125 -0.703125 C 2.21875 -0.703125 1.609375 -1.328125 1.53125 -2.6875 L 0.40625 -2.6875 C 0.453125 -1.9375 0.59375 -1.453125 0.8125 -1.046875 C 1.28125 -0.15625 2.15625 0.296875 3.40625 0.296875 C 5.265625 0.296875 6.46875 -0.828125 6.46875 -2.578125 C 6.46875 -3.765625 6.03125 -4.40625 4.9375 -4.78125 C 5.78125 -5.125 6.203125 -5.765625 6.203125 -6.703125 C 6.203125 -8.296875 5.171875 -9.25 3.4375 -9.25 C 1.609375 -9.25 0.640625 -8.234375 0.59375 -6.265625 L 1.734375 -6.265625 C 1.734375 -6.828125 1.796875 -7.15625 1.9375 -7.4375 C 2.1875 -7.953125 2.75 -8.265625 3.453125 -8.265625 C 4.453125 -8.265625 5.0625 -7.671875 5.0625 -6.671875 C 5.0625 -6.015625 4.828125 -5.625 4.328125 -5.40625 C 4.015625 -5.265625 3.609375 -5.21875 2.828125 -5.203125 Z M 2.828125 -4.265625 "/>
</g>
<g id="glyph-6-1">
<path d="M 6.46875 -1.109375 L 1.703125 -1.109375 C 1.8125 -1.875 2.234375 -2.375 3.34375 -3.046875 L 4.625 -3.765625 C 5.890625 -4.46875 6.546875 -5.40625 6.546875 -6.546875 C 6.546875 -7.3125 6.234375 -8.03125 5.6875 -8.53125 C 5.15625 -9.015625 4.484375 -9.25 3.640625 -9.25 C 2.484375 -9.25 1.625 -8.84375 1.125 -8.046875 C 0.8125 -7.5625 0.671875 -6.984375 0.640625 -6.046875 L 1.765625 -6.046875 C 1.796875 -6.6875 1.875 -7.046875 2.03125 -7.359375 C 2.328125 -7.921875 2.921875 -8.265625 3.59375 -8.265625 C 4.625 -8.265625 5.390625 -7.53125 5.390625 -6.53125 C 5.390625 -5.78125 4.96875 -5.140625 4.15625 -4.6875 L 2.984375 -4 C 1.09375 -2.90625 0.53125 -2.03125 0.4375 -0.015625 L 6.46875 -0.015625 Z M 6.46875 -1.109375 "/>
</g>
<g id="glyph-6-2">
<path d="M 3.3125 -6.59375 L 3.3125 0 L 4.4375 0 L 4.4375 -9.25 L 3.703125 -9.25 C 3.296875 -7.828125 3.046875 -7.640625 1.3125 -7.40625 L 1.3125 -6.59375 Z M 3.3125 -6.59375 "/>
</g>
<g id="glyph-6-3">
<path d="M 4.1875 -2.234375 L 4.1875 0 L 5.3125 0 L 5.3125 -2.234375 L 6.65625 -2.234375 L 6.65625 -3.25 L 5.3125 -3.25 L 5.3125 -9.25 L 4.484375 -9.25 L 0.359375 -3.421875 L 0.359375 -2.234375 Z M 4.1875 -3.25 L 1.34375 -3.25 L 4.1875 -7.328125 Z M 4.1875 -3.25 "/>
</g>
<g id="glyph-6-4">
<path d="M 3.515625 -9.25 C 2.671875 -9.25 1.90625 -8.875 1.4375 -8.234375 C 0.84375 -7.421875 0.546875 -6.1875 0.546875 -4.484375 C 0.546875 -1.359375 1.578125 0.296875 3.515625 0.296875 C 5.4375 0.296875 6.484375 -1.359375 6.484375 -4.40625 C 6.484375 -6.1875 6.203125 -7.390625 5.609375 -8.234375 C 5.125 -8.875 4.375 -9.25 3.515625 -9.25 Z M 3.515625 -8.25 C 4.734375 -8.25 5.34375 -7.015625 5.34375 -4.5 C 5.34375 -1.875 4.75 -0.640625 3.5 -0.640625 C 2.296875 -0.640625 1.703125 -1.921875 1.703125 -4.46875 C 1.703125 -7.015625 2.296875 -8.25 3.515625 -8.25 Z M 3.515625 -8.25 "/>
</g>
<g id="glyph-6-5">
<path d="M 0.671875 -2.109375 C 0.890625 -0.59375 1.875 0.296875 3.25 0.296875 C 4.265625 0.296875 5.15625 -0.1875 5.6875 -1.03125 C 6.25 -1.9375 6.515625 -3.0625 6.515625 -4.734375 C 6.515625 -6.296875 6.28125 -7.28125 5.75 -8.09375 C 5.25 -8.859375 4.453125 -9.25 3.453125 -9.25 C 1.734375 -9.25 0.484375 -7.953125 0.484375 -6.171875 C 0.484375 -4.46875 1.640625 -3.265625 3.28125 -3.265625 C 4.140625 -3.265625 4.765625 -3.578125 5.34375 -4.28125 C 5.34375 -1.96875 4.625 -0.703125 3.328125 -0.703125 C 2.53125 -0.703125 1.984375 -1.21875 1.796875 -2.109375 Z M 3.4375 -8.265625 C 4.484375 -8.265625 5.28125 -7.390625 5.28125 -6.1875 C 5.28125 -5.0625 4.515625 -4.265625 3.40625 -4.265625 C 2.3125 -4.265625 1.640625 -5.03125 1.640625 -6.25 C 1.640625 -7.421875 2.390625 -8.265625 3.4375 -8.265625 Z M 3.4375 -8.265625 "/>
</g>
<g id="glyph-6-6">
<path d="M 6.65625 -9.078125 L 0.59375 -9.078125 L 0.59375 -7.953125 L 5.484375 -7.953125 C 3.328125 -4.875 2.4375 -2.984375 1.765625 0 L 2.96875 0 C 3.46875 -2.90625 4.609375 -5.40625 6.65625 -8.125 Z M 6.65625 -9.078125 "/>
</g>
<g id="glyph-7-0">
<path d="M 10.34375 -11.65625 L 8.921875 -11.65625 L 8.921875 -2.125 L 2.828125 -11.65625 L 1.21875 -11.65625 L 1.21875 0 L 2.625 0 L 2.625 -9.453125 L 8.65625 0 L 10.34375 0 Z M 10.34375 -11.65625 "/>
</g>
<g id="glyph-7-1">
<path d="M 7.71875 0 L 7.71875 -8.390625 L 6.390625 -8.390625 L 6.390625 -3.625 C 6.390625 -1.921875 5.484375 -0.796875 4.09375 -0.796875 C 3.046875 -0.796875 2.375 -1.4375 2.375 -2.453125 L 2.375 -8.390625 L 1.046875 -8.390625 L 1.046875 -1.921875 C 1.046875 -0.53125 2.078125 0.375 3.71875 0.375 C 4.9375 0.375 5.734375 -0.0625 6.515625 -1.171875 L 6.515625 0 Z M 7.71875 0 "/>
</g>
<g id="glyph-7-2">
<path d="M 1.125 -8.390625 L 1.125 0 L 2.46875 0 L 2.46875 -5.265625 C 2.46875 -6.484375 3.34375 -7.453125 4.4375 -7.453125 C 5.421875 -7.453125 5.984375 -6.84375 5.984375 -5.78125 L 5.984375 0 L 7.328125 0 L 7.328125 -5.265625 C 7.328125 -6.484375 8.203125 -7.453125 9.296875 -7.453125 C 10.265625 -7.453125 10.84375 -6.828125 10.84375 -5.78125 L 10.84375 0 L 12.1875 0 L 12.1875 -6.28125 C 12.1875 -7.796875 11.328125 -8.625 9.765625 -8.625 C 8.640625 -8.625 7.96875 -8.28125 7.1875 -7.34375 C 6.6875 -8.234375 6.015625 -8.625 4.921875 -8.625 C 3.8125 -8.625 3.0625 -8.203125 2.359375 -7.203125 L 2.359375 -8.390625 Z M 1.125 -8.390625 "/>
</g>
<g id="glyph-7-3">
<path d="M 0.859375 -11.65625 L 0.859375 0 L 2.0625 0 L 2.0625 -1.078125 C 2.703125 -0.09375 3.546875 0.375 4.71875 0.375 C 6.921875 0.375 8.375 -1.4375 8.375 -4.21875 C 8.375 -6.9375 7.015625 -8.625 4.78125 -8.625 C 3.625 -8.625 2.8125 -8.1875 2.1875 -7.25 L 2.1875 -11.65625 Z M 4.53125 -7.375 C 6.015625 -7.375 6.96875 -6.078125 6.96875 -4.078125 C 6.96875 -2.171875 5.984375 -0.875 4.53125 -0.875 C 3.109375 -0.875 2.1875 -2.15625 2.1875 -4.125 C 2.1875 -6.09375 3.109375 -7.375 4.53125 -7.375 Z M 4.53125 -7.375 "/>
</g>
<g id="glyph-7-4">
<path d="M 8.203125 -3.75 C 8.203125 -5.03125 8.109375 -5.796875 7.875 -6.421875 C 7.328125 -7.796875 6.046875 -8.625 4.484375 -8.625 C 2.140625 -8.625 0.640625 -6.84375 0.640625 -4.078125 C 0.640625 -1.3125 2.078125 0.375 4.453125 0.375 C 6.375 0.375 7.703125 -0.71875 8.03125 -2.546875 L 6.6875 -2.546875 C 6.3125 -1.4375 5.5625 -0.859375 4.5 -0.859375 C 3.640625 -0.859375 2.921875 -1.25 2.484375 -1.953125 C 2.15625 -2.4375 2.046875 -2.90625 2.03125 -3.75 Z M 2.0625 -4.828125 C 2.171875 -6.390625 3.125 -7.390625 4.46875 -7.390625 C 5.828125 -7.390625 6.765625 -6.34375 6.765625 -4.828125 Z M 2.0625 -4.828125 "/>
</g>
<g id="glyph-7-5">
<path d="M 1.109375 -8.390625 L 1.109375 0 L 2.453125 0 L 2.453125 -4.359375 C 2.46875 -6.375 3.296875 -7.265625 5.140625 -7.21875 L 5.140625 -8.578125 C 4.90625 -8.609375 4.78125 -8.625 4.625 -8.625 C 3.765625 -8.625 3.109375 -8.109375 2.34375 -6.859375 L 2.34375 -8.390625 Z M 1.109375 -8.390625 "/>
</g>
<g id="glyph-7-6">
</g>
<g id="glyph-7-7">
<path d="M 8.5625 -0.78125 C 8.421875 -0.75 8.359375 -0.75 8.265625 -0.75 C 7.8125 -0.75 7.546875 -0.984375 7.546875 -1.40625 L 7.546875 -6.34375 C 7.546875 -7.828125 6.46875 -8.625 4.40625 -8.625 C 3.171875 -8.625 2.1875 -8.265625 1.609375 -7.640625 C 1.234375 -7.21875 1.078125 -6.734375 1.046875 -5.90625 L 2.390625 -5.90625 C 2.5 -6.921875 3.109375 -7.390625 4.359375 -7.390625 C 5.5625 -7.390625 6.21875 -6.9375 6.21875 -6.140625 L 6.21875 -5.796875 C 6.203125 -5.21875 5.921875 -5.015625 4.828125 -4.859375 C 2.9375 -4.625 2.65625 -4.5625 2.140625 -4.359375 C 1.171875 -3.9375 0.671875 -3.203125 0.671875 -2.109375 C 0.671875 -0.59375 1.734375 0.375 3.421875 0.375 C 4.484375 0.375 5.328125 0 6.265625 -0.859375 C 6.375 0 6.78125 0.375 7.640625 0.375 C 7.9375 0.375 8.109375 0.34375 8.5625 0.21875 Z M 6.21875 -2.640625 C 6.21875 -2.1875 6.09375 -1.921875 5.703125 -1.546875 C 5.15625 -1.0625 4.5 -0.796875 3.71875 -0.796875 C 2.671875 -0.796875 2.0625 -1.296875 2.0625 -2.140625 C 2.0625 -3.03125 2.640625 -3.46875 4.078125 -3.6875 C 5.5 -3.875 5.78125 -3.9375 6.21875 -4.140625 Z M 6.21875 -2.640625 "/>
</g>
<g id="glyph-7-8">
<path d="M 4.0625 -8.390625 L 2.6875 -8.390625 L 2.6875 -10.6875 L 1.359375 -10.6875 L 1.359375 -8.390625 L 0.21875 -8.390625 L 0.21875 -7.296875 L 1.359375 -7.296875 L 1.359375 -0.953125 C 1.359375 -0.09375 1.9375 0.375 2.96875 0.375 C 3.328125 0.375 3.609375 0.34375 4.0625 0.25 L 4.0625 -0.859375 C 3.875 -0.8125 3.703125 -0.796875 3.421875 -0.796875 C 2.84375 -0.796875 2.6875 -0.953125 2.6875 -1.546875 L 2.6875 -7.296875 L 4.0625 -7.296875 Z M 4.0625 -8.390625 "/>
</g>
<g id="glyph-7-9">
<path d="M 2.40625 -8.390625 L 1.078125 -8.390625 L 1.078125 0 L 2.40625 0 Z M 2.40625 -11.65625 L 1.0625 -11.65625 L 1.0625 -9.984375 L 2.40625 -9.984375 Z M 2.40625 -11.65625 "/>
</g>
<g id="glyph-7-10">
<path d="M 7.015625 -6.046875 C 6.984375 -7.703125 5.90625 -8.625 3.96875 -8.625 C 2.015625 -8.625 0.75 -7.609375 0.75 -6.0625 C 0.75 -4.75 1.421875 -4.125 3.40625 -3.640625 L 4.65625 -3.34375 C 5.578125 -3.125 5.953125 -2.78125 5.953125 -2.1875 C 5.953125 -1.390625 5.171875 -0.859375 4 -0.859375 C 3.28125 -0.859375 2.671875 -1.078125 2.34375 -1.421875 C 2.125 -1.65625 2.03125 -1.90625 1.953125 -2.5 L 0.546875 -2.5 C 0.609375 -0.5625 1.703125 0.375 3.890625 0.375 C 6 0.375 7.34375 -0.671875 7.34375 -2.28125 C 7.34375 -3.53125 6.640625 -4.21875 4.96875 -4.625 L 3.703125 -4.921875 C 2.609375 -5.1875 2.140625 -5.53125 2.140625 -6.125 C 2.140625 -6.90625 2.828125 -7.390625 3.921875 -7.390625 C 4.984375 -7.390625 5.5625 -6.921875 5.59375 -6.046875 Z M 7.015625 -6.046875 "/>
</g>
<g id="glyph-7-11">
<path d="M 2.25 -11.65625 L 0.921875 -11.65625 L 0.921875 0 L 2.25 0 L 2.25 -3.265625 L 3.546875 -4.546875 L 6.390625 0 L 8.03125 0 L 4.609375 -5.484375 L 7.515625 -8.390625 L 5.8125 -8.390625 L 2.25 -4.828125 Z M 2.25 -11.65625 "/>
</g>
</g>
<clipPath id="clip-0">
<path clip-rule="nonzero" d="M 0 0 L 1440 0 L 1440 378 L 0 378 Z M 0 0 "/>
</clipPath>
<clipPath id="clip-1">
<path clip-rule="nonzero" d="M 53.347656 47.167969 L 1434.023438 47.167969 L 1434.023438 336.652344 L 53.347656 336.652344 Z M 53.347656 47.167969 "/>
</clipPath>
<clipPath id="clip-2">
<path clip-rule="nonzero" d="M 115 59 L 1434.023438 59 L 1434.023438 273 L 115 273 Z M 115 59 "/>
</clipPath>
<clipPath id="clip-3">
<path clip-rule="nonzero" d="M 115 59 L 1434.023438 59 L 1434.023438 271 L 115 271 Z M 115 59 "/>
</clipPath>
<clipPath id="clip-4">
<path clip-rule="nonzero" d="M 0 378 L 1440 378 L 1440 504 L 0 504 Z M 0 378 "/>
</clipPath>
<clipPath id="clip-5">
<path clip-rule="nonzero" d="M 123.347656 405.957031 L 1434.023438 405.957031 L 1434.023438 462.65625 L 123.347656 462.65625 Z M 123.347656 405.957031 "/>
</clipPath>
</defs>
<rect x="-144" y="-50.4" width="1728" height="604.8" fill="rgb(100%, 100%, 100%)" fill-opacity="1"/>
<path fill-rule="nonzero" fill="rgb(100%, 100%, 100%)" fill-opacity="1" d="M 0 378 L 1440 378 L 1440 0 L 0 0 Z M 0 378 "/>
<g clip-path="url(#clip-0)">
<path fill="none" stroke-width="1.163976" stroke-linecap="round" stroke-linejoin="round" stroke="rgb(100%, 100%, 100%)" stroke-opacity="1" stroke-miterlimit="10" d="M 0 378 L 1440 378 L 1440 0 L 0 0 Z M 0 378 "/>
</g>
<g clip-path="url(#clip-1)">
<path fill-rule="nonzero" fill="rgb(100%, 100%, 100%)" fill-opacity="1" d="M 53.347656 336.652344 L 1434.023438 336.652344 L 1434.023438 47.167969 L 53.347656 47.167969 Z M 53.347656 336.652344 "/>
</g>
<path fill="none" stroke-width="2.133957" stroke-linecap="butt" stroke-linejoin="round" stroke="rgb(88.627451%, 48.235294%, 4.705882%)" stroke-opacity="1" stroke-miterlimit="10" d="M 116.105469 60.328125 L 129.074219 60.328125 L 129.074219 68.550781 L 223.210938 68.550781 L 223.210938 77.992188 L 260.867188 77.992188 L 260.867188 87.433594 L 280.949219 87.433594 L 280.949219 96.878906 L 281.367188 96.878906 L 281.367188 106.320312 L 281.785156 106.320312 L 281.785156 115.761719 L 306.46875 115.761719 L 306.46875 125.203125 L 307.308594 125.203125 L 307.308594 134.648438 L 356.675781 134.648438 L 356.675781 144.585938 L 363.789062 144.585938 L 363.789062 154.527344 L 378.433594 154.527344 L 378.433594 164.464844 L 421.945312 164.464844 L 421.945312 175.066406 L 459.179688 175.066406 L 459.179688 185.667969 L 510.644531 185.667969 L 510.644531 196.269531 L 536.164062 196.269531 L 536.164062 206.875 L 548.296875 206.875 L 548.296875 217.476562 L 599.339844 217.476562 L 599.339844 228.078125 L 613.566406 228.078125 L 613.566406 238.679688 L 650.800781 238.679688 L 650.800781 249.28125 L 688.875 249.28125 L 688.875 259.882812 L 778.410156 259.882812 L 778.410156 270.484375 L 943.253906 270.484375 L 943.253906 281.085938 L 956.644531 281.085938 L 956.644531 291.6875 L 990.113281 291.6875 L 990.113281 302.292969 L 1095.964844 302.292969 L 1095.964844 312.894531 L 1198.46875 312.894531 L 1198.46875 323.496094 "/>
<g clip-path="url(#clip-2)">
<path fill="none" stroke-width="2.133957" stroke-linecap="butt" stroke-linejoin="round" stroke="rgb(99.607843%, 81.960784%, 1.960784%)" stroke-opacity="1" stroke-miterlimit="10" d="M 116.105469 60.328125 L 153.757812 60.328125 L 153.757812 69.726562 L 154.597656 69.726562 L 154.597656 79.125 L 243.292969 79.125 L 243.292969 89.304688 L 332.828125 89.304688 L 332.828125 100.457031 L 370.484375 100.457031 L 370.484375 111.609375 L 433.660156 111.609375 L 433.660156 122.761719 L 434.078125 122.761719 L 434.078125 133.914062 L 459.601562 133.914062 L 459.601562 145.066406 L 467.550781 145.066406 L 467.550781 156.21875 L 485.539062 156.21875 L 485.539062 167.371094 L 539.929688 167.371094 L 539.929688 178.519531 L 549.132812 178.519531 L 549.132812 189.671875 L 572.5625 189.671875 L 572.5625 200.824219 L 600.175781 200.824219 L 600.175781 211.976562 L 651.222656 211.976562 L 651.222656 223.128906 L 721.089844 223.128906 L 721.089844 234.28125 L 740.335938 234.28125 L 740.335938 245.433594 L 748.285156 245.433594 L 748.285156 258.441406 L 750.378906 258.441406 L 750.378906 271.453125 L 1769.988281 271.453125 "/>
</g>
<path fill="none" stroke-width="2.133957" stroke-linecap="butt" stroke-linejoin="round" stroke="rgb(42.352941%, 63.137255%, 40.392157%)" stroke-opacity="1" stroke-miterlimit="10" d="M 116.105469 60.328125 L 119.871094 60.328125 L 119.871094 79.125 L 151.25 79.125 L 151.25 97.921875 L 268.816406 97.921875 L 268.816406 120.480469 L 352.492188 120.480469 L 352.492188 143.035156 L 513.152344 143.035156 L 513.152344 179.128906 L 524.449219 179.128906 L 524.449219 251.3125 L 542.023438 251.3125 L 542.023438 287.402344 L 631.976562 287.402344 "/>
<g clip-path="url(#clip-3)">
<path fill="none" stroke-width="2.133957" stroke-linecap="butt" stroke-linejoin="round" stroke="rgb(7.843137%, 35.294118%, 46.27451%)" stroke-opacity="1" stroke-miterlimit="10" d="M 116.105469 60.328125 L 129.074219 60.328125 L 129.074219 79.125 L 138.277344 79.125 L 138.277344 97.921875 L 141.625 97.921875 L 141.625 116.71875 L 154.175781 116.71875 L 154.175781 135.515625 L 561.269531 135.515625 L 561.269531 162.371094 L 602.269531 162.371094 L 602.269531 189.226562 L 638.667969 189.226562 L 638.667969 216.078125 L 769.625 216.078125 L 769.625 242.933594 L 778.410156 242.933594 L 778.410156 269.789062 L 1590.917969 269.789062 "/>
</g>
<g fill="rgb(88.627451%, 48.235294%, 4.705882%)" fill-opacity="1">
<use xlink:href="#glyph-0-0" x="147.25" y="70.634766"/>
</g>
<g fill="rgb(88.627451%, 48.235294%, 4.705882%)" fill-opacity="1">
<use xlink:href="#glyph-0-0" x="166.496094" y="70.634766"/>
</g>
<g fill="rgb(88.627451%, 48.235294%, 4.705882%)" fill-opacity="1">
<use xlink:href="#glyph-0-0" x="168.585938" y="70.634766"/>
</g>
<g fill="rgb(88.627451%, 48.235294%, 4.705882%)" fill-opacity="1">
<use xlink:href="#glyph-0-0" x="169.421875" y="70.634766"/>
</g>
<g fill="rgb(88.627451%, 48.235294%, 4.705882%)" fill-opacity="1">
<use xlink:href="#glyph-0-0" x="307.910156" y="136.732422"/>
</g>
<g fill="rgb(88.627451%, 48.235294%, 4.705882%)" fill-opacity="1">
<use xlink:href="#glyph-0-0" x="414.179688" y="166.548828"/>
</g>
<g fill="rgb(99.607843%, 81.960784%, 1.960784%)" fill-opacity="1">
<use xlink:href="#glyph-0-0" x="118.796875" y="62.412109"/>
</g>
<g fill="rgb(99.607843%, 81.960784%, 1.960784%)" fill-opacity="1">
<use xlink:href="#glyph-0-0" x="171.933594" y="81.208984"/>
</g>
<g fill="rgb(99.607843%, 81.960784%, 1.960784%)" fill-opacity="1">
<use xlink:href="#glyph-0-0" x="224.230469" y="81.208984"/>
</g>
<g fill="rgb(99.607843%, 81.960784%, 1.960784%)" fill-opacity="1">
<use xlink:href="#glyph-0-0" x="263.140625" y="91.388672"/>
</g>
<g fill="rgb(99.607843%, 81.960784%, 1.960784%)" fill-opacity="1">
<use xlink:href="#glyph-0-0" x="287.828125" y="91.388672"/>
</g>
<g fill="rgb(99.607843%, 81.960784%, 1.960784%)" fill-opacity="1">
<use xlink:href="#glyph-0-0" x="740.941406" y="247.517578"/>
</g>
<g fill="rgb(99.607843%, 81.960784%, 1.960784%)" fill-opacity="1">
<use xlink:href="#glyph-0-0" x="805.789062" y="273.537109"/>
</g>
<g fill="rgb(99.607843%, 81.960784%, 1.960784%)" fill-opacity="1">
<use xlink:href="#glyph-0-0" x="1225.429688" y="273.537109"/>
</g>
<g fill="rgb(99.607843%, 81.960784%, 1.960784%)" fill-opacity="1">
<use xlink:href="#glyph-0-0" x="1278.566406" y="273.537109"/>
</g>
<g fill="rgb(42.352941%, 63.137255%, 40.392157%)" fill-opacity="1">
<use xlink:href="#glyph-0-0" x="153.105469" y="100.005859"/>
</g>
<g fill="rgb(42.352941%, 63.137255%, 40.392157%)" fill-opacity="1">
<use xlink:href="#glyph-0-0" x="160.636719" y="100.005859"/>
</g>
<g fill="rgb(42.352941%, 63.137255%, 40.392157%)" fill-opacity="1">
<use xlink:href="#glyph-0-0" x="453.507812" y="145.119141"/>
</g>
<g fill="rgb(42.352941%, 63.137255%, 40.392157%)" fill-opacity="1">
<use xlink:href="#glyph-0-0" x="481.121094" y="145.119141"/>
</g>
<g fill="rgb(42.352941%, 63.137255%, 40.392157%)" fill-opacity="1">
<use xlink:href="#glyph-0-0" x="482.792969" y="145.119141"/>
</g>
<g fill="rgb(42.352941%, 63.137255%, 40.392157%)" fill-opacity="1">
<use xlink:href="#glyph-0-0" x="627.976562" y="289.486328"/>
</g>
<g fill="rgb(7.843137%, 35.294118%, 46.27451%)" fill-opacity="1">
<use xlink:href="#glyph-0-0" x="396.1875" y="137.599609"/>
</g>
<g fill="rgb(7.843137%, 35.294118%, 46.27451%)" fill-opacity="1">
<use xlink:href="#glyph-0-0" x="430.496094" y="137.599609"/>
</g>
<g fill="rgb(7.843137%, 35.294118%, 46.27451%)" fill-opacity="1">
<use xlink:href="#glyph-0-0" x="431.332031" y="137.599609"/>
</g>
<g fill="rgb(7.843137%, 35.294118%, 46.27451%)" fill-opacity="1">
<use xlink:href="#glyph-0-0" x="1206.605469" y="271.873047"/>
</g>
<g fill="rgb(0%, 0%, 0%)" fill-opacity="1">
<use xlink:href="#glyph-1-0" x="149.183594" y="275.733398"/>
<use xlink:href="#glyph-1-1" x="157.183594" y="275.733398"/>
<use xlink:href="#glyph-1-2" x="161.183594" y="275.733398"/>
<use xlink:href="#glyph-1-1" x="169.183594" y="275.733398"/>
<use xlink:href="#glyph-1-3" x="173.183594" y="275.733398"/>
<use xlink:href="#glyph-1-4" x="181.183594" y="275.733398"/>
<use xlink:href="#glyph-1-5" x="185.183594" y="275.733398"/>
<use xlink:href="#glyph-1-5" x="193.183594" y="275.733398"/>
</g>
<path fill="none" stroke-width="1.163976" stroke-linecap="square" stroke-linejoin="round" stroke="rgb(0%, 0%, 0%)" stroke-opacity="1" stroke-miterlimit="10" d="M 53.347656 336.652344 L 53.347656 47.167969 "/>
<g fill="rgb(0%, 0%, 0%)" fill-opacity="1">
<use xlink:href="#glyph-2-0" x="23.964844" y="327.744141"/>
<use xlink:href="#glyph-2-1" x="30.964844" y="327.744141"/>
<use xlink:href="#glyph-2-0" x="33.964844" y="327.744141"/>
<use xlink:href="#glyph-2-0" x="40.964844" y="327.744141"/>
</g>
<g fill="rgb(0%, 0%, 0%)" fill-opacity="1">
<use xlink:href="#glyph-2-0" x="23.964844" y="261.951172"/>
<use xlink:href="#glyph-2-1" x="30.964844" y="261.951172"/>
<use xlink:href="#glyph-2-2" x="33.964844" y="261.951172"/>
<use xlink:href="#glyph-2-3" x="40.964844" y="261.951172"/>
</g>
<g fill="rgb(0%, 0%, 0%)" fill-opacity="1">
<use xlink:href="#glyph-2-0" x="23.964844" y="196.158203"/>
<use xlink:href="#glyph-2-1" x="30.964844" y="196.158203"/>
<use xlink:href="#glyph-2-3" x="33.964844" y="196.158203"/>
<use xlink:href="#glyph-2-0" x="40.964844" y="196.158203"/>
</g>
<g fill="rgb(0%, 0%, 0%)" fill-opacity="1">
<use xlink:href="#glyph-2-0" x="23.964844" y="130.365234"/>
<use xlink:href="#glyph-2-1" x="30.964844" y="130.365234"/>
<use xlink:href="#glyph-2-4" x="33.964844" y="130.365234"/>
<use xlink:href="#glyph-2-3" x="40.964844" y="130.365234"/>
</g>
<g fill="rgb(0%, 0%, 0%)" fill-opacity="1">
<use xlink:href="#glyph-2-5" x="23.964844" y="64.576172"/>
<use xlink:href="#glyph-2-1" x="30.964844" y="64.576172"/>
<use xlink:href="#glyph-2-0" x="33.964844" y="64.576172"/>
<use xlink:href="#glyph-2-0" x="40.964844" y="64.576172"/>
</g>
<path fill="none" stroke-width="1.163976" stroke-linecap="butt" stroke-linejoin="round" stroke="rgb(0%, 0%, 0%)" stroke-opacity="1" stroke-miterlimit="10" d="M 50.355469 323.496094 L 53.347656 323.496094 "/>
<path fill="none" stroke-width="1.163976" stroke-linecap="butt" stroke-linejoin="round" stroke="rgb(0%, 0%, 0%)" stroke-opacity="1" stroke-miterlimit="10" d="M 50.355469 257.703125 L 53.347656 257.703125 "/>
<path fill="none" stroke-width="1.163976" stroke-linecap="butt" stroke-linejoin="round" stroke="rgb(0%, 0%, 0%)" stroke-opacity="1" stroke-miterlimit="10" d="M 50.355469 191.910156 L 53.347656 191.910156 "/>
<path fill="none" stroke-width="1.163976" stroke-linecap="butt" stroke-linejoin="round" stroke="rgb(0%, 0%, 0%)" stroke-opacity="1" stroke-miterlimit="10" d="M 50.355469 126.117188 L 53.347656 126.117188 "/>
<path fill="none" stroke-width="1.163976" stroke-linecap="butt" stroke-linejoin="round" stroke="rgb(0%, 0%, 0%)" stroke-opacity="1" stroke-miterlimit="10" d="M 50.355469 60.328125 L 53.347656 60.328125 "/>
<path fill="none" stroke-width="1.163976" stroke-linecap="square" stroke-linejoin="round" stroke="rgb(0%, 0%, 0%)" stroke-opacity="1" stroke-miterlimit="10" d="M 53.347656 336.652344 L 1434.023438 336.652344 "/>
<path fill="none" stroke-width="1.163976" stroke-linecap="butt" stroke-linejoin="round" stroke="rgb(0%, 0%, 0%)" stroke-opacity="1" stroke-miterlimit="10" d="M 116.105469 339.644531 L 116.105469 336.652344 "/>
<path fill="none" stroke-width="1.163976" stroke-linecap="butt" stroke-linejoin="round" stroke="rgb(0%, 0%, 0%)" stroke-opacity="1" stroke-miterlimit="10" d="M 534.492188 339.644531 L 534.492188 336.652344 "/>
<path fill="none" stroke-width="1.163976" stroke-linecap="butt" stroke-linejoin="round" stroke="rgb(0%, 0%, 0%)" stroke-opacity="1" stroke-miterlimit="10" d="M 952.878906 339.644531 L 952.878906 336.652344 "/>
<path fill="none" stroke-width="1.163976" stroke-linecap="butt" stroke-linejoin="round" stroke="rgb(0%, 0%, 0%)" stroke-opacity="1" stroke-miterlimit="10" d="M 1371.265625 339.644531 L 1371.265625 336.652344 "/>
<g fill="rgb(0%, 0%, 0%)" fill-opacity="1">
<use xlink:href="#glyph-2-0" x="112.605469" y="350.783203"/>
</g>
<g fill="rgb(0%, 0%, 0%)" fill-opacity="1">
<use xlink:href="#glyph-2-5" x="520.492188" y="350.783203"/>
<use xlink:href="#glyph-2-0" x="527.492188" y="350.783203"/>
<use xlink:href="#glyph-2-0" x="534.492188" y="350.783203"/>
<use xlink:href="#glyph-2-0" x="541.492188" y="350.783203"/>
</g>
<g fill="rgb(0%, 0%, 0%)" fill-opacity="1">
<use xlink:href="#glyph-2-2" x="938.878906" y="350.783203"/>
<use xlink:href="#glyph-2-0" x="945.878906" y="350.783203"/>
<use xlink:href="#glyph-2-0" x="952.878906" y="350.783203"/>
<use xlink:href="#glyph-2-0" x="959.878906" y="350.783203"/>
</g>
<g fill="rgb(0%, 0%, 0%)" fill-opacity="1">
<use xlink:href="#glyph-2-6" x="1357.265625" y="350.783203"/>
<use xlink:href="#glyph-2-0" x="1364.265625" y="350.783203"/>
<use xlink:href="#glyph-2-0" x="1371.265625" y="350.783203"/>
<use xlink:href="#glyph-2-0" x="1378.265625" y="350.783203"/>
</g>
<g fill="rgb(0%, 0%, 0%)" fill-opacity="1">
<use xlink:href="#glyph-3-0" x="727.683594" y="367.229492"/>
<use xlink:href="#glyph-3-1" x="736.683594" y="367.229492"/>
<use xlink:href="#glyph-3-2" x="739.683594" y="367.229492"/>
<use xlink:href="#glyph-3-3" x="751.683594" y="367.229492"/>
</g>
<g fill="rgb(0%, 0%, 0%)" fill-opacity="1">
<use xlink:href="#glyph-4-0" x="16.182617" y="251.410156"/>
<use xlink:href="#glyph-4-1" x="16.182617" y="242.410156"/>
<use xlink:href="#glyph-4-2" x="16.182617" y="234.410156"/>
<use xlink:href="#glyph-4-3" x="16.182617" y="229.410156"/>
<use xlink:href="#glyph-4-4" x="16.182617" y="222.410156"/>
<use xlink:href="#glyph-4-3" x="16.182617" y="219.410156"/>
<use xlink:href="#glyph-4-5" x="16.182617" y="212.410156"/>
<use xlink:href="#glyph-4-6" x="16.182617" y="204.410156"/>
<use xlink:href="#glyph-4-7" x="16.182617" y="201.410156"/>
<use xlink:href="#glyph-4-8" x="16.182617" y="197.410156"/>
<use xlink:href="#glyph-4-2" x="16.182617" y="189.410156"/>
<use xlink:href="#glyph-4-9" x="16.182617" y="184.410156"/>
<use xlink:href="#glyph-4-10" x="16.182617" y="176.410156"/>
<use xlink:href="#glyph-4-5" x="16.182617" y="168.410156"/>
<use xlink:href="#glyph-4-10" x="16.182617" y="160.410156"/>
<use xlink:href="#glyph-4-4" x="16.182617" y="152.410156"/>
<use xlink:href="#glyph-4-6" x="16.182617" y="149.410156"/>
<use xlink:href="#glyph-4-4" x="16.182617" y="146.410156"/>
<use xlink:href="#glyph-4-11" x="16.182617" y="143.410156"/>
<use xlink:href="#glyph-4-12" x="16.182617" y="139.410156"/>
</g>
<path fill-rule="nonzero" fill="rgb(100%, 100%, 100%)" fill-opacity="1" d="M 509.738281 35.210938 L 977.632812 35.210938 L 977.632812 5.976562 L 509.738281 5.976562 Z M 509.738281 35.210938 "/>
<g fill="rgb(0%, 0%, 0%)" fill-opacity="1">
<use xlink:href="#glyph-5-0" x="515.714844" y="23.883789"/>
<use xlink:href="#glyph-5-1" x="522.714844" y="23.883789"/>
<use xlink:href="#glyph-5-2" x="525.714844" y="23.883789"/>
<use xlink:href="#glyph-5-3" x="528.714844" y="23.883789"/>
<use xlink:href="#glyph-5-1" x="533.714844" y="23.883789"/>
<use xlink:href="#glyph-5-3" x="536.714844" y="23.883789"/>
</g>
<path fill-rule="nonzero" fill="rgb(100%, 100%, 100%)" fill-opacity="1" d="M 548.691406 29.234375 L 565.972656 29.234375 L 565.972656 11.953125 L 548.691406 11.953125 Z M 548.691406 29.234375 "/>
<path fill="none" stroke-width="2.133957" stroke-linecap="butt" stroke-linejoin="round" stroke="rgb(88.627451%, 48.235294%, 4.705882%)" stroke-opacity="1" stroke-miterlimit="10" d="M 550.417969 20.59375 L 564.242188 20.59375 "/>
<g fill="rgb(88.627451%, 48.235294%, 4.705882%)" fill-opacity="1">
<use xlink:href="#glyph-0-0" x="553.332031" y="22.677734"/>
</g>
<path fill-rule="nonzero" fill="rgb(100%, 100%, 100%)" fill-opacity="1" d="M 655.925781 29.234375 L 673.207031 29.234375 L 673.207031 11.953125 L 655.925781 11.953125 Z M 655.925781 29.234375 "/>
<path fill="none" stroke-width="2.133957" stroke-linecap="butt" stroke-linejoin="round" stroke="rgb(99.607843%, 81.960784%, 1.960784%)" stroke-opacity="1" stroke-miterlimit="10" d="M 657.65625 20.59375 L 671.480469 20.59375 "/>
<g fill="rgb(99.607843%, 81.960784%, 1.960784%)" fill-opacity="1">
<use xlink:href="#glyph-0-0" x="660.566406" y="22.677734"/>
</g>
<path fill-rule="nonzero" fill="rgb(100%, 100%, 100%)" fill-opacity="1" d="M 763.160156 29.234375 L 780.441406 29.234375 L 780.441406 11.953125 L 763.160156 11.953125 Z M 763.160156 29.234375 "/>
<path fill="none" stroke-width="2.133957" stroke-linecap="butt" stroke-linejoin="round" stroke="rgb(42.352941%, 63.137255%, 40.392157%)" stroke-opacity="1" stroke-miterlimit="10" d="M 764.890625 20.59375 L 778.714844 20.59375 "/>
<g fill="rgb(42.352941%, 63.137255%, 40.392157%)" fill-opacity="1">
<use xlink:href="#glyph-0-0" x="767.800781" y="22.677734"/>
</g>
<path fill-rule="nonzero" fill="rgb(100%, 100%, 100%)" fill-opacity="1" d="M 870.398438 29.234375 L 887.679688 29.234375 L 887.679688 11.953125 L 870.398438 11.953125 Z M 870.398438 29.234375 "/>
<path fill="none" stroke-width="2.133957" stroke-linecap="butt" stroke-linejoin="round" stroke="rgb(7.843137%, 35.294118%, 46.27451%)" stroke-opacity="1" stroke-miterlimit="10" d="M 872.125 20.59375 L 885.949219 20.59375 "/>
<g fill="rgb(7.843137%, 35.294118%, 46.27451%)" fill-opacity="1">
<use xlink:href="#glyph-0-0" x="875.035156" y="22.677734"/>
</g>
<g fill="rgb(0%, 0%, 0%)" fill-opacity="1">
<use xlink:href="#glyph-5-4" x="571.949219" y="23.883789"/>
<use xlink:href="#glyph-5-5" x="576.949219" y="23.883789"/>
<use xlink:href="#glyph-5-6" x="578.949219" y="23.883789"/>
<use xlink:href="#glyph-5-7" x="584.949219" y="23.883789"/>
<use xlink:href="#glyph-5-1" x="589.949219" y="23.883789"/>
<use xlink:href="#glyph-5-8" x="592.949219" y="23.883789"/>
<use xlink:href="#glyph-5-2" x="598.949219" y="23.883789"/>
<use xlink:href="#glyph-5-9" x="601.949219" y="23.883789"/>
<use xlink:href="#glyph-5-10" x="607.949219" y="23.883789"/>
<use xlink:href="#glyph-5-11" x="612.949219" y="23.883789"/>
<use xlink:href="#glyph-5-8" x="620.949219" y="23.883789"/>
<use xlink:href="#glyph-5-3" x="625.949219" y="23.883789"/>
<use xlink:href="#glyph-5-12" x="631.949219" y="23.883789"/>
<use xlink:href="#glyph-5-13" x="637.949219" y="23.883789"/>
<use xlink:href="#glyph-5-14" x="643.949219" y="23.883789"/>
</g>
<g fill="rgb(0%, 0%, 0%)" fill-opacity="1">
<use xlink:href="#glyph-5-4" x="679.183594" y="23.883789"/>
<use xlink:href="#glyph-5-5" x="684.183594" y="23.883789"/>
<use xlink:href="#glyph-5-6" x="686.183594" y="23.883789"/>
<use xlink:href="#glyph-5-7" x="692.183594" y="23.883789"/>
<use xlink:href="#glyph-5-1" x="697.183594" y="23.883789"/>
<use xlink:href="#glyph-5-8" x="700.183594" y="23.883789"/>
<use xlink:href="#glyph-5-2" x="706.183594" y="23.883789"/>
<use xlink:href="#glyph-5-9" x="709.183594" y="23.883789"/>
<use xlink:href="#glyph-5-10" x="715.183594" y="23.883789"/>
<use xlink:href="#glyph-5-11" x="720.183594" y="23.883789"/>
<use xlink:href="#glyph-5-8" x="728.183594" y="23.883789"/>
<use xlink:href="#glyph-5-3" x="733.183594" y="23.883789"/>
<use xlink:href="#glyph-5-12" x="739.183594" y="23.883789"/>
<use xlink:href="#glyph-5-13" x="745.183594" y="23.883789"/>
<use xlink:href="#glyph-5-15" x="751.183594" y="23.883789"/>
</g>
<g fill="rgb(0%, 0%, 0%)" fill-opacity="1">
<use xlink:href="#glyph-5-4" x="786.417969" y="23.883789"/>
<use xlink:href="#glyph-5-5" x="791.417969" y="23.883789"/>
<use xlink:href="#glyph-5-6" x="793.417969" y="23.883789"/>
<use xlink:href="#glyph-5-7" x="799.417969" y="23.883789"/>
<use xlink:href="#glyph-5-1" x="804.417969" y="23.883789"/>
<use xlink:href="#glyph-5-8" x="807.417969" y="23.883789"/>
<use xlink:href="#glyph-5-2" x="813.417969" y="23.883789"/>
<use xlink:href="#glyph-5-9" x="816.417969" y="23.883789"/>
<use xlink:href="#glyph-5-10" x="822.417969" y="23.883789"/>
<use xlink:href="#glyph-5-11" x="827.417969" y="23.883789"/>
<use xlink:href="#glyph-5-8" x="835.417969" y="23.883789"/>
<use xlink:href="#glyph-5-3" x="840.417969" y="23.883789"/>
<use xlink:href="#glyph-5-12" x="846.417969" y="23.883789"/>
<use xlink:href="#glyph-5-13" x="852.417969" y="23.883789"/>
<use xlink:href="#glyph-5-16" x="858.417969" y="23.883789"/>
</g>
<g fill="rgb(0%, 0%, 0%)" fill-opacity="1">
<use xlink:href="#glyph-5-4" x="893.65625" y="23.883789"/>
<use xlink:href="#glyph-5-5" x="898.65625" y="23.883789"/>
<use xlink:href="#glyph-5-6" x="900.65625" y="23.883789"/>
<use xlink:href="#glyph-5-7" x="906.65625" y="23.883789"/>
<use xlink:href="#glyph-5-1" x="911.65625" y="23.883789"/>
<use xlink:href="#glyph-5-8" x="914.65625" y="23.883789"/>
<use xlink:href="#glyph-5-2" x="920.65625" y="23.883789"/>
<use xlink:href="#glyph-5-9" x="923.65625" y="23.883789"/>
<use xlink:href="#glyph-5-10" x="929.65625" y="23.883789"/>
<use xlink:href="#glyph-5-11" x="934.65625" y="23.883789"/>
<use xlink:href="#glyph-5-8" x="942.65625" y="23.883789"/>
<use xlink:href="#glyph-5-3" x="947.65625" y="23.883789"/>
<use xlink:href="#glyph-5-12" x="953.65625" y="23.883789"/>
<use xlink:href="#glyph-5-13" x="959.65625" y="23.883789"/>
<use xlink:href="#glyph-5-17" x="965.65625" y="23.883789"/>
</g>
<path fill-rule="nonzero" fill="rgb(100%, 100%, 100%)" fill-opacity="1" d="M 0 504 L 1440 504 L 1440 378 L 0 378 Z M 0 504 "/>
<g clip-path="url(#clip-4)">
<path fill="none" stroke-width="1.163976" stroke-linecap="round" stroke-linejoin="round" stroke="rgb(100%, 100%, 100%)" stroke-opacity="1" stroke-miterlimit="10" d="M 0 504 L 1440 504 L 1440 378 L 0 378 Z M 0 504 "/>
</g>
<g clip-path="url(#clip-5)">
<path fill-rule="nonzero" fill="rgb(100%, 100%, 100%)" fill-opacity="1" d="M 123.347656 462.652344 L 1434.023438 462.652344 L 1434.023438 405.953125 L 123.347656 405.953125 Z M 123.347656 462.652344 "/>
</g>
<g fill="rgb(0%, 0%, 0%)" fill-opacity="1">
<use xlink:href="#glyph-6-0" x="175.921875" y="418.388672"/>
<use xlink:href="#glyph-6-1" x="182.921875" y="418.388672"/>
</g>
<g fill="rgb(0%, 0%, 0%)" fill-opacity="1">
<use xlink:href="#glyph-6-2" x="573.097656" y="418.388672"/>
<use xlink:href="#glyph-6-1" x="580.097656" y="418.388672"/>
</g>
<g fill="rgb(0%, 0%, 0%)" fill-opacity="1">
<use xlink:href="#glyph-6-3" x="973.773438" y="418.388672"/>
</g>
<g fill="rgb(0%, 0%, 0%)" fill-opacity="1">
<use xlink:href="#glyph-6-4" x="1370.945312" y="418.388672"/>
</g>
<g fill="rgb(0%, 0%, 0%)" fill-opacity="1">
<use xlink:href="#glyph-6-1" x="175.921875" y="431.888672"/>
<use xlink:href="#glyph-6-5" x="182.921875" y="431.888672"/>
</g>
<g fill="rgb(0%, 0%, 0%)" fill-opacity="1">
<use xlink:href="#glyph-6-2" x="573.097656" y="431.888672"/>
<use xlink:href="#glyph-6-3" x="580.097656" y="431.888672"/>
</g>
<g fill="rgb(0%, 0%, 0%)" fill-opacity="1">
<use xlink:href="#glyph-6-0" x="973.773438" y="431.888672"/>
</g>
<g fill="rgb(0%, 0%, 0%)" fill-opacity="1">
<use xlink:href="#glyph-6-2" x="1370.945312" y="431.888672"/>
</g>
<g fill="rgb(0%, 0%, 0%)" fill-opacity="1">
<use xlink:href="#glyph-6-2" x="175.921875" y="445.388672"/>
<use xlink:href="#glyph-6-3" x="182.921875" y="445.388672"/>
</g>
<g fill="rgb(0%, 0%, 0%)" fill-opacity="1">
<use xlink:href="#glyph-6-1" x="576.597656" y="445.388672"/>
</g>
<g fill="rgb(0%, 0%, 0%)" fill-opacity="1">
<use xlink:href="#glyph-6-4" x="973.773438" y="445.388672"/>
</g>
<g fill="rgb(0%, 0%, 0%)" fill-opacity="1">
<use xlink:href="#glyph-6-4" x="1370.945312" y="445.388672"/>
</g>
<g fill="rgb(0%, 0%, 0%)" fill-opacity="1">
<use xlink:href="#glyph-6-2" x="175.921875" y="458.888672"/>
<use xlink:href="#glyph-6-3" x="182.921875" y="458.888672"/>
</g>
<g fill="rgb(0%, 0%, 0%)" fill-opacity="1">
<use xlink:href="#glyph-6-6" x="576.597656" y="458.888672"/>
</g>
<g fill="rgb(0%, 0%, 0%)" fill-opacity="1">
<use xlink:href="#glyph-6-1" x="973.773438" y="458.888672"/>
</g>
<g fill="rgb(0%, 0%, 0%)" fill-opacity="1">
<use xlink:href="#glyph-6-2" x="1370.945312" y="458.888672"/>
</g>
<path fill="none" stroke-width="1.163976" stroke-linecap="square" stroke-linejoin="round" stroke="rgb(0%, 0%, 0%)" stroke-opacity="1" stroke-miterlimit="10" d="M 123.347656 462.652344 L 123.347656 405.957031 "/>
<g fill="rgb(7.843137%, 35.294118%, 46.27451%)" fill-opacity="1">
<use xlink:href="#glyph-2-7" x="23.964844" y="457.302734"/>
<use xlink:href="#glyph-2-8" x="29.964844" y="457.302734"/>
<use xlink:href="#glyph-2-9" x="32.964844" y="457.302734"/>
<use xlink:href="#glyph-2-10" x="39.964844" y="457.302734"/>
<use xlink:href="#glyph-2-11" x="45.964844" y="457.302734"/>
<use xlink:href="#glyph-2-12" x="48.964844" y="457.302734"/>
<use xlink:href="#glyph-2-13" x="55.964844" y="457.302734"/>
<use xlink:href="#glyph-2-14" x="59.964844" y="457.302734"/>
<use xlink:href="#glyph-2-15" x="66.964844" y="457.302734"/>
<use xlink:href="#glyph-2-16" x="72.964844" y="457.302734"/>
<use xlink:href="#glyph-2-12" x="82.964844" y="457.302734"/>
<use xlink:href="#glyph-2-17" x="89.964844" y="457.302734"/>
<use xlink:href="#glyph-2-18" x="96.964844" y="457.302734"/>
<use xlink:href="#glyph-2-19" x="103.964844" y="457.302734"/>
<use xlink:href="#glyph-2-20" x="110.964844" y="457.302734"/>
</g>
<g fill="rgb(42.352941%, 63.137255%, 40.392157%)" fill-opacity="1">
<use xlink:href="#glyph-2-7" x="23.964844" y="443.802734"/>
<use xlink:href="#glyph-2-8" x="29.964844" y="443.802734"/>
<use xlink:href="#glyph-2-9" x="32.964844" y="443.802734"/>
<use xlink:href="#glyph-2-10" x="39.964844" y="443.802734"/>
<use xlink:href="#glyph-2-11" x="45.964844" y="443.802734"/>
<use xlink:href="#glyph-2-12" x="48.964844" y="443.802734"/>
<use xlink:href="#glyph-2-13" x="55.964844" y="443.802734"/>
<use xlink:href="#glyph-2-14" x="59.964844" y="443.802734"/>
<use xlink:href="#glyph-2-15" x="66.964844" y="443.802734"/>
<use xlink:href="#glyph-2-16" x="72.964844" y="443.802734"/>
<use xlink:href="#glyph-2-12" x="82.964844" y="443.802734"/>
<use xlink:href="#glyph-2-17" x="89.964844" y="443.802734"/>
<use xlink:href="#glyph-2-18" x="96.964844" y="443.802734"/>
<use xlink:href="#glyph-2-19" x="103.964844" y="443.802734"/>
<use xlink:href="#glyph-2-6" x="110.964844" y="443.802734"/>
</g>
<g fill="rgb(99.607843%, 81.960784%, 1.960784%)" fill-opacity="1">
<use xlink:href="#glyph-2-7" x="23.964844" y="430.302734"/>
<use xlink:href="#glyph-2-8" x="29.964844" y="430.302734"/>
<use xlink:href="#glyph-2-9" x="32.964844" y="430.302734"/>
<use xlink:href="#glyph-2-10" x="39.964844" y="430.302734"/>
<use xlink:href="#glyph-2-11" x="45.964844" y="430.302734"/>
<use xlink:href="#glyph-2-12" x="48.964844" y="430.302734"/>
<use xlink:href="#glyph-2-13" x="55.964844" y="430.302734"/>
<use xlink:href="#glyph-2-14" x="59.964844" y="430.302734"/>
<use xlink:href="#glyph-2-15" x="66.964844" y="430.302734"/>
<use xlink:href="#glyph-2-16" x="72.964844" y="430.302734"/>
<use xlink:href="#glyph-2-12" x="82.964844" y="430.302734"/>
<use xlink:href="#glyph-2-17" x="89.964844" y="430.302734"/>
<use xlink:href="#glyph-2-18" x="96.964844" y="430.302734"/>
<use xlink:href="#glyph-2-19" x="103.964844" y="430.302734"/>
<use xlink:href="#glyph-2-2" x="110.964844" y="430.302734"/>
</g>
<g fill="rgb(88.627451%, 48.235294%, 4.705882%)" fill-opacity="1">
<use xlink:href="#glyph-2-7" x="23.964844" y="416.802734"/>
<use xlink:href="#glyph-2-8" x="29.964844" y="416.802734"/>
<use xlink:href="#glyph-2-9" x="32.964844" y="416.802734"/>
<use xlink:href="#glyph-2-10" x="39.964844" y="416.802734"/>
<use xlink:href="#glyph-2-11" x="45.964844" y="416.802734"/>
<use xlink:href="#glyph-2-12" x="48.964844" y="416.802734"/>
<use xlink:href="#glyph-2-13" x="55.964844" y="416.802734"/>
<use xlink:href="#glyph-2-14" x="59.964844" y="416.802734"/>
<use xlink:href="#glyph-2-15" x="66.964844" y="416.802734"/>
<use xlink:href="#glyph-2-16" x="72.964844" y="416.802734"/>
<use xlink:href="#glyph-2-12" x="82.964844" y="416.802734"/>
<use xlink:href="#glyph-2-17" x="89.964844" y="416.802734"/>
<use xlink:href="#glyph-2-18" x="96.964844" y="416.802734"/>
<use xlink:href="#glyph-2-19" x="103.964844" y="416.802734"/>
<use xlink:href="#glyph-2-5" x="110.964844" y="416.802734"/>
</g>
<path fill="none" stroke-width="1.163976" stroke-linecap="butt" stroke-linejoin="round" stroke="rgb(0%, 0%, 0%)" stroke-opacity="1" stroke-miterlimit="10" d="M 120.355469 454.554688 L 123.347656 454.554688 "/>
<path fill="none" stroke-width="1.163976" stroke-linecap="butt" stroke-linejoin="round" stroke="rgb(0%, 0%, 0%)" stroke-opacity="1" stroke-miterlimit="10" d="M 120.355469 441.054688 L 123.347656 441.054688 "/>
<path fill="none" stroke-width="1.163976" stroke-linecap="butt" stroke-linejoin="round" stroke="rgb(0%, 0%, 0%)" stroke-opacity="1" stroke-miterlimit="10" d="M 120.355469 427.554688 L 123.347656 427.554688 "/>
<path fill="none" stroke-width="1.163976" stroke-linecap="butt" stroke-linejoin="round" stroke="rgb(0%, 0%, 0%)" stroke-opacity="1" stroke-miterlimit="10" d="M 120.355469 414.054688 L 123.347656 414.054688 "/>
<path fill="none" stroke-width="1.163976" stroke-linecap="square" stroke-linejoin="round" stroke="rgb(0%, 0%, 0%)" stroke-opacity="1" stroke-miterlimit="10" d="M 123.347656 462.652344 L 1434.023438 462.652344 "/>
<path fill="none" stroke-width="1.163976" stroke-linecap="butt" stroke-linejoin="round" stroke="rgb(0%, 0%, 0%)" stroke-opacity="1" stroke-miterlimit="10" d="M 182.921875 465.644531 L 182.921875 462.652344 "/>
<path fill="none" stroke-width="1.163976" stroke-linecap="butt" stroke-linejoin="round" stroke="rgb(0%, 0%, 0%)" stroke-opacity="1" stroke-miterlimit="10" d="M 580.097656 465.644531 L 580.097656 462.652344 "/>
<path fill="none" stroke-width="1.163976" stroke-linecap="butt" stroke-linejoin="round" stroke="rgb(0%, 0%, 0%)" stroke-opacity="1" stroke-miterlimit="10" d="M 977.273438 465.644531 L 977.273438 462.652344 "/>
<path fill="none" stroke-width="1.163976" stroke-linecap="butt" stroke-linejoin="round" stroke="rgb(0%, 0%, 0%)" stroke-opacity="1" stroke-miterlimit="10" d="M 1374.445312 465.644531 L 1374.445312 462.652344 "/>
<g fill="rgb(0%, 0%, 0%)" fill-opacity="1">
<use xlink:href="#glyph-2-0" x="179.421875" y="476.783203"/>
</g>
<g fill="rgb(0%, 0%, 0%)" fill-opacity="1">
<use xlink:href="#glyph-2-5" x="566.097656" y="476.783203"/>
<use xlink:href="#glyph-2-0" x="573.097656" y="476.783203"/>
<use xlink:href="#glyph-2-0" x="580.097656" y="476.783203"/>
<use xlink:href="#glyph-2-0" x="587.097656" y="476.783203"/>
</g>
<g fill="rgb(0%, 0%, 0%)" fill-opacity="1">
<use xlink:href="#glyph-2-2" x="963.273438" y="476.783203"/>
<use xlink:href="#glyph-2-0" x="970.273438" y="476.783203"/>
<use xlink:href="#glyph-2-0" x="977.273438" y="476.783203"/>
<use xlink:href="#glyph-2-0" x="984.273438" y="476.783203"/>
</g>
<g fill="rgb(0%, 0%, 0%)" fill-opacity="1">
<use xlink:href="#glyph-2-6" x="1360.445312" y="476.783203"/>
<use xlink:href="#glyph-2-0" x="1367.445312" y="476.783203"/>
<use xlink:href="#glyph-2-0" x="1374.445312" y="476.783203"/>
<use xlink:href="#glyph-2-0" x="1381.445312" y="476.783203"/>
</g>
<g fill="rgb(0%, 0%, 0%)" fill-opacity="1">
<use xlink:href="#glyph-3-0" x="762.683594" y="493.229492"/>
<use xlink:href="#glyph-3-1" x="771.683594" y="493.229492"/>
<use xlink:href="#glyph-3-2" x="774.683594" y="493.229492"/>
<use xlink:href="#glyph-3-3" x="786.683594" y="493.229492"/>
</g>
<g fill="rgb(0%, 0%, 0%)" fill-opacity="1">
<use xlink:href="#glyph-4-0" x="16.182617" y="453.304688"/>
<use xlink:href="#glyph-4-11" x="16.182617" y="444.304688"/>
<use xlink:href="#glyph-4-2" x="16.182617" y="440.304688"/>
<use xlink:href="#glyph-4-5" x="16.182617" y="435.304688"/>
<use xlink:href="#glyph-4-11" x="16.182617" y="427.304688"/>
<use xlink:href="#glyph-4-5" x="16.182617" y="423.304688"/>
</g>
<g fill="rgb(0%, 0%, 0%)" fill-opacity="1">
<use xlink:href="#glyph-7-0" x="123.347656" y="395.640625"/>
<use xlink:href="#glyph-7-1" x="135.347656" y="395.640625"/>
<use xlink:href="#glyph-7-2" x="144.347656" y="395.640625"/>
<use xlink:href="#glyph-7-3" x="157.347656" y="395.640625"/>
<use xlink:href="#glyph-7-4" x="166.347656" y="395.640625"/>
<use xlink:href="#glyph-7-5" x="175.347656" y="395.640625"/>
<use xlink:href="#glyph-7-6" x="180.347656" y="395.640625"/>
<use xlink:href="#glyph-7-7" x="184.347656" y="395.640625"/>
<use xlink:href="#glyph-7-8" x="193.347656" y="395.640625"/>
<use xlink:href="#glyph-7-6" x="197.347656" y="395.640625"/>
<use xlink:href="#glyph-7-5" x="201.347656" y="395.640625"/>
<use xlink:href="#glyph-7-9" x="206.347656" y="395.640625"/>
<use xlink:href="#glyph-7-10" x="210.347656" y="395.640625"/>
<use xlink:href="#glyph-7-11" x="218.347656" y="395.640625"/>
</g>
</svg>
